<svg width="40" height="40" xmlns="http://www.w3.org/2000/svg"><path style="color:#000;opacity:1;fill:#fff;fill-rule:evenodd;stroke-linecap:round;stroke-linejoin:round" d="M7 33c-2.199 0-4-1.801-4-4V5c0-2.199 1.801-4 4-4h20c2.199 0 4 1.801 4 4v24c0 2.199-1.801 4-4 4zm0-2h20c1.125 0 2-.875 2-2V5c0-1.125-.875-2-2-2H7c-1.125 0-2 .875-2 2v24c0 1.125.875 2 2 2z"/><path style="opacity:1;fill:none;stroke:#fff;stroke-width:1px;stroke-linecap:round;stroke-linejoin:miter" d="M9.5 20.5h15m-15 2h15m-15 4h9"/><path style="opacity:1;fill:#fff;fill-rule:evenodd;stroke:none;stroke-width:.889141;stroke-linecap:round;stroke-linejoin:round" d="m18.106 17.626-1.79-2.342-2.899.543 1.675-2.427-1.412-2.588 2.826.843 2.025-2.143.071 2.947 2.664 1.265-2.781.978z" transform="translate(-7.173 -5.698) scale(1.12468)"/><path style="opacity:1;fill:#fff;fill-rule:evenodd;stroke:none;stroke-width:1.46013;stroke-linecap:round;stroke-linejoin:round" d="m18.106 17.626-1.79-2.342-2.899.543 1.675-2.427-1.412-2.588 2.826.843 2.025-2.143.071 2.947 2.664 1.265-2.781.978z" transform="translate(12.446 -1.34) scale(.68487)"/><path style="opacity:1;fill:#fff;fill-rule:evenodd;stroke:none;stroke-width:2.17491;stroke-linecap:round;stroke-linejoin:round" d="m18.106 17.626-1.79-2.342-2.899.543 1.675-2.427-1.412-2.588 2.826.843 2.025-2.143.071 2.947 2.664 1.265-2.781.978z" transform="rotate(-14.999 36.049 -34.05) scale(.45979)"/><path style="fill:none;stroke:#fff;stroke-width:1px;stroke-linecap:round;stroke-linejoin:miter;opacity:.75" d="M7.5 16.5h19"/><path style="opacity:1;fill:none;stroke:#fff;stroke-width:1px;stroke-linecap:round;stroke-linejoin:miter" d="M9.5 24.5h15"/><path style="opacity:.75;fill:none;fill-rule:evenodd;stroke:#fff;stroke-linecap:round;stroke-linejoin:round" d="M10.902 37a2.99 2.99 0 0 0 2.598 1.5h20c1.662 0 3-1.338 3-3v-24A2.99 2.99 0 0 0 35 8.902"/><path style="opacity:.75;fill:none;fill-rule:evenodd;stroke:#fff;stroke-linecap:round;stroke-linejoin:round" d="M7.902 34a2.99 2.99 0 0 0 2.598 1.5h20c1.662 0 3-1.338 3-3v-24A2.99 2.99 0 0 0 32 5.902"/></svg>