<svg width="16" height="16" version="1.1" id="svg6" xmlns="http://www.w3.org/2000/svg"><style>@media (prefers-color-scheme:dark){path{fill:#fff}}</style><path d="M4.693 1.012a1.31 1.31 0 0 0-.63.168c-.558.325-.767 1.01-.766 1.824 0 .714.164 1.575.47 2.549-.137.03-.268.066-.4.1a1.237 1.237 0 0 1 .182.722c.263-.066.54-.127.83-.182 1.064-.2 2.3-.318 3.621-.318 2.037 0 3.883.279 5.186.713.65.217 1.164.476 1.492.734.327.258.447.485.447.678 0 .193-.12.42-.447.678-.328.258-.841.517-1.492.734-1.303.434-3.149.713-5.186.713-.492 0-.972-.018-1.437-.049h-.004a18.428 18.428 0 0 1-2.18-.27 12.086 12.086 0 0 1-1.565-.394c-.65-.217-1.164-.476-1.492-.734C.995 8.42.875 8.193.875 8c0-.193.12-.42.447-.678.159-.125.37-.248.61-.369a.75.75 0 1 0-.381-.65c-.26.132-.496.273-.694.43C.425 7.072.125 7.501.125 8c0 .497.3.927.732 1.268.432.34 1.015.62 1.721.855.364.121.763.23 1.188.324-.31.974-.467 1.833-.47 2.55 0 .811.206 1.498.765 1.823 0 .001 0 .002.002.002h.001l.002.002c.563.316 1.256.15 1.96-.26.616-.357 1.282-.928 1.97-1.681.114.125.228.244.342.36a1.27 1.27 0 0 1 .478-.587 16.25 16.25 0 0 1-1.488-1.793c1.395.05 2.791-.04 4.168-.27.308.959.458 1.788.46 2.405 0 .684-.18 1.05-.393 1.174-.145.082-.352.1-.668-.002a3.08 3.08 0 0 1-.663-.324.75.75 0 0 0 .018-.147.75.75 0 1 0-.521.715c.32.212.633.373.937.47.443.143.894.151 1.27-.062h.002c.56-.323.767-1.01.767-1.824 0-.714-.16-1.577-.467-2.55.424-.096.82-.204 1.184-.325.706-.235 1.29-.515 1.72-.855.433-.34.733-.77.733-1.268 0-.497-.3-.927-.732-1.268-.432-.34-1.015-.62-1.721-.855-.363-.12-.759-.23-1.182-.324.066-.209.122-.41.174-.608a1.235 1.235 0 0 1-.738-.166c-.054.203-.112.412-.182.63a19.14 19.14 0 0 0-1.877-.227A19.522 19.522 0 0 0 8.5 3.688l.002-.002c1.07-1.177 2.093-1.847 2.668-1.918a1 1 0 0 1 .123-.008.541.541 0 0 1 .27.068c.213.123.392.487.392 1.17l-.002.037a.75.75 0 1 0 .752.033L12.707 3c0-.813-.208-1.497-.77-1.82a1.393 1.393 0 0 0-.86-.157c-.943.117-1.976.888-3.073 2.096a12.42 12.42 0 0 0-.766-.771c-.818-.75-1.585-1.239-2.318-1.325a1.67 1.67 0 0 0-.227-.011zm.016.748c.038 0 .08.002.125.008.438.05 1.14.438 1.898 1.132.622.57 1.287 1.333 1.938 2.237a20.76 20.76 0 0 0-4.16.271c-.31-.958-.46-1.786-.461-2.404-.001-.684.178-1.052.39-1.176a.536.536 0 0 1 .27-.068zM8 6.5a1.5 1.5 0 1 0 0 3 1.5 1.5 0 0 0 0-3zm-3.49 4.092c.587.1 1.213.177 1.873.224A19.48 19.48 0 0 0 7.5 12.312c-.675.746-1.316 1.293-1.852 1.604-.59.343-.998.371-1.212.252-.212-.125-.39-.488-.39-1.17.003-.618.156-1.448.464-2.406z"/></svg>