<svg width="40" height="40" xmlns="http://www.w3.org/2000/svg"><path style="color:#000;fill:#fff;fill-rule:evenodd;stroke-linecap:round;stroke-linejoin:round;-inkscape-stroke:none;opacity:.75" d="M7.473 11A3.475 3.475 0 0 0 4.1 13.664c.38-.309.84-.525 1.343-.615A2.459 2.459 0 0 1 7.473 12h24.054A2.456 2.456 0 0 1 34 14.473v12.054a2.46 2.46 0 0 1-1 1.993v1.148c1.18-.555 2-1.752 2-3.14V14.472A3.476 3.476 0 0 0 31.527 11H7.473z"/><path style="color:#000;fill:#fff;fill-rule:evenodd;stroke-linecap:round;stroke-linejoin:round;-inkscape-stroke:none" d="M28 34c2.199 0 4-1.801 4-4V18c0-2.199-1.801-4-4-4H4c-2.199 0-4 1.801-4 4v12c0 2.199 1.801 4 4 4zm0-2H4c-1.125 0-2-.875-2-2V18c0-1.125.875-2 2-2h24c1.125 0 2 .875 2 2v12c0 1.125-.875 2-2 2z"/><circle cx="-15" cy="-24.999" r="3.999" style="fill:#fff;stroke-width:3.77965" transform="scale(-1)"/><path d="M15 27a9 1.999 0 0 0 9-2.003A9 1.999 0 0 0 15.003 23 9 1.999 0 0 0 6 24.997 9 1.999 0 0 0 15 27zm.227-.802a8.002 1.2 0 0 1-.227 0 8.002 1.2 0 0 1-8.002-1.2A8.002 1.2 0 0 1 15 23.8a8.002 1.2 0 0 1 8.002 1.197 8.002 1.2 0 0 1-7.771 1.2z" style="opacity:1;fill:#fff;stroke-width:3.77965"/><circle style="opacity:.75;fill:#fff;fill-rule:evenodd;stroke:none;stroke-width:1;stroke-linecap:round;stroke-linejoin:round" cx="23.77" cy="20.5" r="1.25"/><path style="color:#000;fill:#fff;fill-rule:evenodd;stroke-linecap:round;stroke-linejoin:round;-inkscape-stroke:none;opacity:.75" d="M10.473 8c-1.389 0-2.586.82-3.141 2H8.48a2.46 2.46 0 0 1 1.993-1h24.054A2.456 2.456 0 0 1 37 11.473v12.054a2.46 2.46 0 0 1-1 1.993v1.148c1.18-.555 2-1.752 2-3.14V11.472A3.476 3.476 0 0 0 34.527 8H10.473z"/></svg>