<svg width="40" height="40" xmlns="http://www.w3.org/2000/svg"><path style="fill:none;stroke:#fff;stroke-width:3;stroke-linecap:round;stroke-linejoin:round" d="m1.5 21.5 18-18 19 18"/><path style="fill:none;stroke:#fff;stroke-width:2;stroke-linecap:round;stroke-linejoin:round" d="M7 22v12c0 2 1.275 3.024 3 3h7v-4c0-2 1-3 3-3s2.958.898 3 3v4h6c2 0 4-1 4-3V22"/><path style="fill:#fff;fill-rule:evenodd;stroke:none;stroke-width:2;stroke-linecap:round;stroke-linejoin:round" d="M20 17a1 1 0 0 1 1 1 1 1 0 0 1-1 1 1 1 0 0 1-1-1 1 1 0 0 1 1-1z"/><path style="fill:#fff;fill-rule:evenodd;stroke:none;stroke-width:1.99999;stroke-linecap:round;stroke-linejoin:round" d="M20 15a3 3 0 0 0-3 3 3 3 0 0 0 3 3 3 3 0 0 0 3-3 3 3 0 0 0-3-3zm0 1a2 2 0 0 1 2 2 2 2 0 0 1-2 2 2 2 0 0 1-2-2 2 2 0 0 1 2-2z"/><path style="opacity:.6;fill:#fff;fill-rule:evenodd;stroke-linecap:round;stroke-linejoin:round" d="M30 7c-.554 0-1 .446-1 1v.37l3 2.84V8c0-.554-.446-1-1-1h-1z"/></svg>