<?xml version="1.0" encoding="UTF-8" standalone="no"?>
<svg
   width="40"
   height="40"
   version="1.1"
   id="svg4"
   sodipodi:docname="letter.svg"
   inkscape:version="1.2 (1:1.2.1+202207142221+cd75a1ee6d)"
   xmlns:inkscape="http://www.inkscape.org/namespaces/inkscape"
   xmlns:sodipodi="http://sodipodi.sourceforge.net/DTD/sodipodi-0.dtd"
   xmlns="http://www.w3.org/2000/svg"
   xmlns:svg="http://www.w3.org/2000/svg">
  <defs
     id="defs8" />
  <sodipodi:namedview
     id="namedview6"
     pagecolor="#333333"
     bordercolor="#666666"
     borderopacity="1.0"
     inkscape:showpageshadow="2"
     inkscape:pageopacity="0"
     inkscape:pagecheckerboard="0"
     inkscape:deskcolor="#d1d1d1"
     showgrid="true"
     inkscape:zoom="16.68772"
     inkscape:cx="13.602817"
     inkscape:cy="16.389297"
     inkscape:window-width="1920"
     inkscape:window-height="1016"
     inkscape:window-x="0"
     inkscape:window-y="0"
     inkscape:window-maximized="1"
     inkscape:current-layer="svg4">
    <inkscape:grid
       type="xygrid"
       id="grid133"
       color="#9999ff"
       opacity="0.1254902"
       empcolor="#9999ff"
       empopacity="0.25098039" />
  </sodipodi:namedview>
  <path
     d="m 7,14 8.5,4.5 c 2.64588,1.40076 6.181663,1.492061 9,0 l 8.5,-4.5"
     stroke-linejoin="round"
     stroke-width="2"
     id="path133"
     sodipodi:nodetypes="cssc"
     style="fill:none;stroke:#ffffff;stroke-width:2;stroke-linecap:round" />
  <path
     d="m 6,28 8,-4 m 12,0 8,4"
     id="path135"
     sodipodi:nodetypes="cccc"
     style="opacity:0.6;fill:none;stroke:#ffffff;stroke-linecap:round" />
  <path
     style="color:#000000;fill:#ffffff;fill-rule:evenodd;stroke-linecap:round;stroke-linejoin:round;-inkscape-stroke:none"
     d="m 4,6 c -2.1987006,0 -4,1.8012994 -4,4 v 20 c 0,2.198701 1.8012994,4 4,4 h 32 c 2.198701,0 4,-1.801299 4,-4 v -20 c 0,-2.1987006 -1.801299,-4 -4,-4 z m 0,2 h 32 c 1.125296,0 2,0.8747039 2,2 v 20 c 0,1.125296 -0.874704,2 -2,2 h -32 c -1.1252961,0 -2,-0.874704 -2,-2 v -20 c 0,-1.1252961 0.8747039,-2 2,-2 z"
     id="rect465"
     sodipodi:nodetypes="ssssssssssssssssss" />
</svg>
