<svg width="40" height="40" xmlns="http://www.w3.org/2000/svg"><path d="m7 14 8.5 4.5c2.646 1.4 6.182 1.492 9 0L33 14" style="fill:none;stroke:#fff;stroke-width:2;stroke-linecap:round"/><path d="m6 28 8-4m12 0 8 4" style="opacity:.6;fill:none;stroke:#fff;stroke-linecap:round"/><path style="color:#000;fill:#fff;fill-rule:evenodd;stroke-linecap:round;stroke-linejoin:round;-inkscape-stroke:none" d="M4 6c-2.199 0-4 1.801-4 4v20c0 2.199 1.801 4 4 4h32c2.199 0 4-1.801 4-4V10c0-2.199-1.801-4-4-4zm0 2h32c1.125 0 2 .875 2 2v20c0 1.125-.875 2-2 2H4c-1.125 0-2-.875-2-2V10c0-1.125.875-2 2-2z"/></svg>