<?xml version="1.0" encoding="UTF-8" standalone="no"?>
<svg
   width="371.86816"
   height="88.007256"
   version="1.1"
   id="svg20"
   sodipodi:docname="logo.svg"
   inkscape:version="1.2 (1:1.2.1+202207142221+cd75a1ee6d)"
   xml:space="preserve"
   xmlns:inkscape="http://www.inkscape.org/namespaces/inkscape"
   xmlns:sodipodi="http://sodipodi.sourceforge.net/DTD/sodipodi-0.dtd"
   xmlns="http://www.w3.org/2000/svg"
   xmlns:svg="http://www.w3.org/2000/svg"><g
     aria-label="Le Petit Astro"
     id="text410"
     style="font-size:40px;line-height:1.25;font-family:'SF Cartoonist Hand';-inkscape-font-specification:'SF Cartoonist Hand';letter-spacing:0px;word-spacing:0px;fill:#ffffff"><path
       d="m 127.83711,26.339629 h 1.92 v 31.552 h 17.344 v 1.92 h -17.344 -1.92 v -1.92 z"
       style="font-size:64px;font-family:Colombia;-inkscape-font-specification:'Colombia, Normal'"
       id="path490" /><path
       d="m 159.38902,39.011629 q 3.136,0 5.632,1.984 2.56,1.984 3.584,5.184 l 0.32,0.832 -16.256,7.424 q 2.368,4.288 6.72,4.288 2.688,0 4.864,-1.856 l 1.216,1.408 q -2.688,2.368 -6.08,2.368 -4.032,0 -6.912,-3.2 -2.88,-3.2 -2.88,-7.616 0,-4.416 2.88,-7.616 2.88,-3.2 6.912,-3.2 z m 0,1.92 q -3.264,0 -5.568,2.624 -2.304,2.56 -2.304,6.272 0,1.472 0.384,2.816 l 14.592,-6.656 q -0.96,-2.304 -2.88,-3.648 -1.92,-1.408 -4.224,-1.408 z"
       style="font-size:64px;font-family:Colombia;-inkscape-font-specification:'Colombia, Normal'"
       id="path492" /><path
       d="m 189.3409,26.339629 h 0.768 1.152 5.248 q 4.096,0 6.976,3.2 2.88,3.2 2.88,7.68 0,4.48 -2.88,7.68 -2.88,3.2 -6.976,3.2 h -5.248 v 11.712 h -1.92 z m 1.92,1.92 v 17.92 h 5.248 q 3.264,0 5.568,-2.624 2.368,-2.624 2.368,-6.336 0,-3.712 -2.368,-6.336 -2.304,-2.624 -5.568,-2.624 z"
       style="font-size:64px;font-family:Colombia;-inkscape-font-specification:'Colombia, Normal'"
       id="path494" /><path
       d="m 218.71677,39.011629 q 3.136,0 5.632,1.984 2.56,1.984 3.584,5.184 l 0.32,0.832 -16.256,7.424 q 2.368,4.288 6.72,4.288 2.688,0 4.864,-1.856 l 1.216,1.408 q -2.688,2.368 -6.08,2.368 -4.032,0 -6.912,-3.2 -2.88,-3.2 -2.88,-7.616 0,-4.416 2.88,-7.616 2.88,-3.2 6.912,-3.2 z m 0,1.92 q -3.264,0 -5.568,2.624 -2.304,2.56 -2.304,6.272 0,1.472 0.384,2.816 l 14.592,-6.656 q -0.96,-2.304 -2.88,-3.648 -1.92,-1.408 -4.224,-1.408 z"
       style="font-size:64px;font-family:Colombia;-inkscape-font-specification:'Colombia, Normal'"
       id="path496" /><path
       d="m 235.35669,32.803629 1.92,-1.024 v 7.744 h 5.248 v 1.92 h -5.248 v 18.368 h -1.92 v -18.368 h -3.328 v -1.92 h 3.328 z"
       style="font-size:64px;font-family:Colombia;-inkscape-font-specification:'Colombia, Normal'"
       id="path498" /><path
       d="m 248.02861,34.659629 q 0.448,-0.448 1.088,-0.448 0.64,0 1.024,0.448 0.384,0.384 0.384,1.024 0,1.408 -1.408,1.408 -0.64,0 -1.088,-0.384 -0.384,-0.384 -0.384,-1.024 0,-0.64 0.384,-1.024 z m 0.128,4.864 h 1.92 v 20.288 h -1.92 z"
       style="font-size:64px;font-family:Colombia;-inkscape-font-specification:'Colombia, Normal'"
       id="path500" /><path
       d="m 258.33252,32.803629 1.92,-1.024 v 7.744 h 5.248 v 1.92 h -5.248 v 18.368 h -1.92 v -18.368 h -3.328 v -1.92 h 3.328 z"
       style="font-size:64px;font-family:Colombia;-inkscape-font-specification:'Colombia, Normal'"
       id="path502" /><path
       d="m 293.46841,26.339629 h 1.856 l 9.408,33.28 -1.856,0.512 -2.88,-10.112 h -11.2 l -2.88,10.112 -1.856,-0.512 z m 0.96,3.776 -5.12,17.984 h 10.176 z"
       style="font-size:64px;font-family:Colombia;-inkscape-font-specification:'Colombia, Normal'"
       id="path504" /><path
       d="m 315.42037,38.819629 q 1.856,0 3.52,1.408 l -1.28,1.472 q -1.152,-0.96 -2.176,-0.96 -0.448,0 -0.64,0.064 -1.216,0.32 -1.856,1.728 -0.384,0.768 -0.384,1.6 0,0.64 0.192,1.216 0.576,1.664 2.624,2.432 3.84,1.472 4.992,4.48 0.448,1.216 0.448,2.24 0,1.6 -0.832,3.072 -1.472,2.496 -4.416,3.008 -0.64,0.128 -1.088,0.128 -2.688,0 -5.312,-1.984 l 1.152,-1.536 q 2.112,1.6 4.16,1.6 0.512,0 0.768,-0.064 2.048,-0.384 3.072,-2.112 0.576,-0.96 0.576,-2.112 0,-0.704 -0.32,-1.536 -0.896,-2.176 -3.904,-3.392 -2.88,-1.152 -3.712,-3.584 -0.32,-1.088 -0.32,-1.856 0,-1.28 0.576,-2.432 0.96,-2.176 3.072,-2.752 0.32,-0.128 1.088,-0.128 z"
       style="font-size:64px;font-family:Colombia;-inkscape-font-specification:'Colombia, Normal'"
       id="path506" /><path
       d="m 327.32434,32.803629 1.92,-1.024 v 7.744 h 5.248 v 1.92 h -5.248 v 18.368 h -1.92 v -18.368 h -3.328 v -1.92 h 3.328 z"
       style="font-size:64px;font-family:Colombia;-inkscape-font-specification:'Colombia, Normal'"
       id="path508" /><path
       d="m 349.40426,39.011629 v 1.92 q -3.264,0 -5.568,2.624 -2.304,2.56 -2.304,6.272 v 9.984 h -1.92 v -9.984 -10.304 h 1.92 v 3.904 q 3.008,-4.416 7.872,-4.416 z"
       style="font-size:64px;font-family:Colombia;-inkscape-font-specification:'Colombia, Normal'"
       id="path510" /><path
       d="m 355.16415,42.211629 q 2.88,-3.2 6.912,-3.2 4.032,0 6.912,3.2 2.88,3.2 2.88,7.616 0,4.416 -2.88,7.616 -2.88,3.2 -6.912,3.2 -4.032,0 -6.912,-3.2 -2.88,-3.2 -2.88,-7.616 0,-4.416 2.88,-7.616 z m 12.48,1.344 q -2.304,-2.624 -5.568,-2.624 -3.264,0 -5.568,2.624 -2.304,2.56 -2.304,6.272 0,3.712 2.304,6.336 2.304,2.56 5.568,2.56 3.264,0 5.568,-2.56 2.304,-2.624 2.304,-6.336 0,-3.712 -2.304,-6.272 z"
       style="font-size:64px;font-family:Colombia;-inkscape-font-specification:'Colombia, Normal'"
       id="path512" /></g><sodipodi:namedview
     id="namedview22"
     pagecolor="#333333"
     bordercolor="#666666"
     borderopacity="1.0"
     inkscape:showpageshadow="2"
     inkscape:pageopacity="0"
     inkscape:pagecheckerboard="0"
     inkscape:deskcolor="#d1d1d1"
     showgrid="false"
     inkscape:zoom="1.3350176"
     inkscape:cx="191.38324"
     inkscape:cy="-48.31397"
     inkscape:window-width="1920"
     inkscape:window-height="1016"
     inkscape:window-x="0"
     inkscape:window-y="0"
     inkscape:window-maximized="1"
     inkscape:current-layer="svg20"><inkscape:grid
       type="xygrid"
       id="grid305"
       originx="-62.166993"
       originy="-18.49577" /><inkscape:grid
       type="xygrid"
       id="grid359"
       dotted="true"
       spacingx="0.5"
       spacingy="0.5"
       empspacing="10"
       originx="-62.166993"
       originy="-18.49577" /></sodipodi:namedview><defs
     id="defs8"><filter
       style="color-interpolation-filters:sRGB"
       id="b"
       x="-0.059358314"
       y="-0.59821254"
       width="1.1187166"
       height="2.1964252"><feGaussianBlur
         stdDeviation="8.367"
         id="feGaussianBlur2" /></filter><filter
       style="color-interpolation-filters:sRGB"
       id="a"
       x="-0.18022147"
       y="-0.20541099"
       width="1.3604429"
       height="1.410822"><feGaussianBlur
         stdDeviation="7.505"
         id="feGaussianBlur5" /></filter></defs><g
     id="g589"
     transform="translate(-7.7307587,4.9174192e-5)"><path
       id="ellipse418"
       style="opacity:0.2;fill:#ffffff;fill-rule:evenodd;stroke-width:1.00001;stroke-linecap:round;stroke-linejoin:round"
       d="m 34.769822,0.71089971 a 49.450001,14.6 60 0 0 -1.703126,0.56835919 49.450001,14.6 60 0 0 2.222656,29.8320311 49.450001,14.6 0 0 0 -26.9492182,12.992187 49.450001,14.6 0 0 0 26.9492192,12.992188 14.6,49.450001 30 0 0 -2.222657,29.833984 14.6,49.450001 30 0 0 24.72461,-16.84375 49.450001,14.6 60 0 0 24.72461,16.843751 49.450001,14.6 60 0 0 -2.216797,-29.835938 49.450001,14.6 0 0 0 26.941401,-12.990236 49.450001,14.6 0 0 0 -26.937495,-12.998045 14.6,49.450001 30 0 0 2.212891,-29.8261725 14.6,49.450001 30 0 0 -24.72461,16.8417965 49.450001,14.6 60 0 0 -23.021484,-17.41015529 z" /><path
       d="m 7.7307587,44.004143 v -43.90900003 h 100.0000013 v 87.81300003 h -100.0000013 z"
       fill="none"
       style="stroke-width:28.4433"
       id="path14" /><path
       id="path361"
       style="color:#000000;opacity:1;fill:#ffffff;fill-rule:evenodd;stroke-width:1;stroke-linecap:round;stroke-linejoin:round"
       d="m 57.840759,29.008049 c -11.793269,0 -22.594334,1.186127 -31.126953,3.173828 0.29538,0.589064 0.477167,1.242755 0.517578,1.933594 8.325226,-1.929192 18.982388,-3.107422 30.609375,-3.107422 13.453732,0 25.636962,1.565918 34.375,4.0625 4.36903,1.248292 7.875361,2.736066 10.214841,4.316406 2.33951,1.580342 3.41016,3.160988 3.41016,4.621094 0,1.460108 -1.07065,3.040754 -3.41016,4.621094 -2.33948,1.58034 -5.845811,3.068114 -10.214841,4.316406 -8.738038,2.496584 -20.921268,4.0625 -34.375,4.0625 -13.453732,0 -25.636962,-1.565916 -34.375,-4.0625 -4.36902,-1.248292 -7.875346,-2.736066 -10.214844,-4.316406 -2.339496,-1.58034 -3.4101563,-3.160986 -3.4101563,-4.621094 0,-1.460106 1.0706603,-3.040752 3.4101563,-4.621094 2.021734,-1.365689 4.95717,-2.652539 8.525391,-3.785156 v -2.09375 c -3.962961,1.210201 -7.259709,2.610379 -9.646485,4.222656 -2.6195563,1.769524 -4.2890623,3.87147 -4.2890623,6.277344 0,2.405876 1.669506,4.507822 4.2890623,6.277344 2.619558,1.769522 6.290853,3.296831 10.789063,4.582031 8.99642,2.570408 21.313735,4.140625 34.921875,4.140625 13.60814,0 25.925456,-1.570217 34.92188,-4.140625 4.4982,-1.2852 8.169501,-2.812509 10.789061,-4.582031 2.61954,-1.769522 4.28906,-3.871468 4.28906,-6.277344 0,-2.405874 -1.66952,-4.50782 -4.28906,-6.277344 -2.61956,-1.769522 -6.290861,-3.296827 -10.789061,-4.582031 -8.996424,-2.570404 -21.31374,-4.140625 -34.92188,-4.140625 z" /><path
       id="ellipse363"
       style="color:#000000;opacity:1;fill:#ffffff;fill-rule:evenodd;stroke-width:1;stroke-linecap:round;stroke-linejoin:round"
       d="m 35.622009,2.3696873e-4 c -0.25599,0.002200001 -0.508648,0.0176400013 -0.757812,0.0468700013 a 1.0001,1.0001 0 0 0 -0.0039,0 c -0.724524,0.0888 -1.412684,0.307158 -2.023437,0.660156 a 1.0001,1.0001 0 0 0 -0.0039,0.0039 c -1.43415,0.83701293 -2.361727,2.34378893 -2.851563,4.21874993 -0.489838,1.874961 -0.577502,4.162145 -0.328125,6.8320311 0.452579,4.845462 2.050819,10.958378 4.714844,17.933594 0.675146,-0.103915 1.381599,-0.190168 2.074218,-0.285156 -2.710297,-7.023117 -4.358705,-13.18655 -4.792968,-17.835938 -0.235023,-2.5162011 -0.12896,-4.6003611 0.273437,-6.1406241 0.402004,-1.53876 1.056121,-2.491968 1.917969,-2.996094 h 0.0039 c 0.364598,-0.21015 0.773337,-0.346858 1.253906,-0.40625 2.679369,-0.31447 7.410702,2.192944 12.746094,7.242187 4.770326,4.5144801 10.06465,11.0771961 15.253906,18.8164071 0.870445,0.02611 1.717611,0.07057 2.574219,0.109374 -5.538352,-8.430157 -11.246946,-15.455645 -16.449219,-20.3789061 -5.158608,-4.881941 -9.761735,-7.85350193 -13.601562,-7.82031193095 z m 45.707031,58.32031203127 c -0.675013,0.103981 -1.381728,0.190103 -2.074219,0.285156 2.712499,7.029503 4.364973,13.193674 4.796876,17.84375 0.233707,2.516192 0.123126,4.602499 -0.28125,6.140628 -0.403981,1.53663 -1.061405,2.483 -1.925782,2.98437 l -0.0039,0.004 c -1.120394,0.63439 -2.73714,0.59446 -4.898438,-0.3086 -2.165108,-0.90464 -4.774986,-2.659 -7.609374,-5.160151 -0.670832,-0.591962 -1.356239,-1.233943 -2.050782,-1.91211 v 2.736329 c 0.242251,0.22111 0.490769,0.464262 0.730469,0.675782 2.939471,2.59388 5.678442,4.47087 8.160156,5.50781 2.481717,1.03694 4.806516,1.25062 6.660157,0.19531 a 1.0001,1.0001 0 0 0 0.0039,0 1.0001,1.0001 0 0 0 0.0039,-0.004 c 1.438366,-0.83246 2.370644,-2.3371 2.863281,-4.21094 0.492638,-1.873845 0.583951,-4.161799 0.335938,-6.832031 -0.450084,-4.845807 -2.04582,-10.964953 -4.710938,-17.945313 z m -31.316406,1.496094 c 4.563585,6.945672 9.218933,12.901095 13.605469,17.525391 0.366319,-0.576159 0.847439,-1.073623 1.410156,-1.458985 -3.976643,-4.248801 -8.224851,-9.696331 -12.425781,-15.957031 -0.875817,-0.02617 -1.728022,-0.07036 -2.589844,-0.109375 z" /><path
       id="ellipse365"
       style="color:#000000;opacity:1;fill:#ffffff;fill-rule:evenodd;stroke-width:1;stroke-linecap:round;stroke-linejoin:round"
       d="m 79.649353,0.01586197 c -2.765633,0.15009 -5.925344,1.82244093 -9.445313,4.58593693 -3.606212,2.831206 -7.584678,6.8876571 -11.707031,11.9648441 0.429964,0.537519 0.85785,1.086922 1.289062,1.644531 4.147027,-5.146488 8.146925,-9.2839211 11.65625,-12.0390621 3.8339,-3.009962 7.106107,-4.36553 9.144532,-4.140625 l 0.0039,0.0039 c 0.477958,0.06018 0.886943,0.192509 1.25,0.402344 0.865556,0.500542 1.52506,1.451275 1.929688,2.988281 0.404626,1.537008 0.514283,3.618064 0.28125,6.1328131 -0.139702,1.507554 -0.421432,3.189499 -0.8125,4.99414 h 2.060546 c 0.349774,-1.708967 0.60678,-3.324342 0.744141,-4.80664 0.247318,-2.6688441 0.153179,-4.9592401 -0.339844,-6.8320321 -0.493024,-1.872787 -1.425031,-3.375309 -2.863281,-4.20703093 -0.610752,-0.352997 -1.295005,-0.571346 -2.019531,-0.660156 a 1.0001,1.0001 0 0 0 -0.01172,-0.0039 c -0.378927,-0.04203 -0.765067,-0.04877 -1.160156,-0.02734 z m 2.326172,21.44531203 c -0.734399,2.487895 -1.63895,5.145613 -2.720704,7.949219 0.69377,0.09523 1.401901,0.180967 2.078126,0.285156 1.032379,-2.704139 1.898438,-5.275618 2.605468,-7.697265 -0.702282,-0.04256 -1.366817,-0.23152 -1.96289,-0.53711 z m -47.607422,36.859375 c -2.663468,6.974187 -4.262344,13.088997 -4.714844,17.933594 -0.249376,2.669886 -0.161711,4.960983 0.328125,6.83594 0.489839,1.87497 1.417433,3.37779 2.851563,4.21484 a 1.0001,1.0001 0 0 0 0.01172,0.008 1.0001,1.0001 0 0 0 0.0039,0 1.0001,1.0001 0 0 0 0.0039,0.004 c 1.446566,0.80979 3.209952,0.8448 5.078125,0.32422 1.868178,-0.52058 3.900098,-1.59049 6.085937,-3.14453 3.970984,-2.82321 8.465433,-7.269489 13.171875,-13.066409 -0.43233,-0.540483 -0.863002,-1.075527 -1.296875,-1.636719 -4.720485,5.853877 -9.230812,10.366714 -13.039062,13.074218 -2.060704,1.46508 -3.919441,2.4231 -5.457031,2.85156 -1.533823,0.42741 -2.68867,0.33583 -3.558594,-0.14843 -0.858751,-0.50504 -1.516953,-1.4533 -1.917969,-2.98829 -0.402397,-1.54025 -0.508456,-3.624421 -0.273437,-6.14062 0.434266,-4.649383 2.08658,-10.812829 4.796874,-17.835938 -0.692617,-0.09499 -1.399073,-0.181239 -2.074218,-0.285156 z" /><g
       id="path524"
       style="opacity:1;fill:#ffffff;stroke-width:0.5"
       transform="matrix(2,0,0,2,-30.159241,-36.991814)"><path
         id="path677"
         style="color:#000000;fill:#ffffff;fill-rule:evenodd;stroke-width:0.5;stroke-linecap:round;stroke-linejoin:round;-inkscape-stroke:none"
         d="m 44,37 c -1.927068,0 -3.5,1.572932 -3.5,3.5 0,1.927068 1.572932,3.5 3.5,3.5 1.927068,0 3.5,-1.572932 3.5,-3.5 0,-1.927068 -1.572932,-3.5 -3.5,-3.5 z" /></g><circle
       style="opacity:1;fill:#ffffff;fill-rule:evenodd;stroke:none;stroke-width:1;stroke-linecap:round;stroke-linejoin:round"
       id="path669"
       cx="22.240761"
       cy="34.408188"
       r="4" /><circle
       style="opacity:1;fill:#ffffff;fill-rule:evenodd;stroke:none;stroke-width:1;stroke-linecap:round;stroke-linejoin:round"
       id="circle671"
       cx="84.240761"
       cy="17.008186"
       r="4" /><circle
       style="opacity:1;fill:#ffffff;fill-rule:evenodd;stroke:none;stroke-width:1;stroke-linecap:round;stroke-linejoin:round"
       id="circle673"
       cx="67.840759"
       cy="80.008186"
       r="4" /></g></svg>
