<?xml version="1.0" encoding="UTF-8" standalone="no"?>
<svg
   width="500"
   height="125"
   version="1.1"
   id="svg20"
   sodipodi:docname="logo.svg"
   inkscape:version="1.2 (1:1.2.1+202207142221+cd75a1ee6d)"
   xmlns:inkscape="http://www.inkscape.org/namespaces/inkscape"
   xmlns:sodipodi="http://sodipodi.sourceforge.net/DTD/sodipodi-0.dtd"
   xmlns="http://www.w3.org/2000/svg"
   xmlns:svg="http://www.w3.org/2000/svg">
  <sodipodi:namedview
     id="namedview22"
     pagecolor="#333333"
     bordercolor="#666666"
     borderopacity="1.0"
     inkscape:showpageshadow="2"
     inkscape:pageopacity="0"
     inkscape:pagecheckerboard="0"
     inkscape:deskcolor="#d1d1d1"
     showgrid="false"
     inkscape:zoom="1.888"
     inkscape:cx="109.63983"
     inkscape:cy="40.519068"
     inkscape:window-width="1920"
     inkscape:window-height="1016"
     inkscape:window-x="0"
     inkscape:window-y="0"
     inkscape:window-maximized="1"
     inkscape:current-layer="svg20">
    <inkscape:grid
       type="xygrid"
       id="grid305" />
    <inkscape:grid
       type="xygrid"
       id="grid359"
       dotted="true"
       spacingx="0.5"
       spacingy="0.5"
       empspacing="10" />
  </sodipodi:namedview>
  <defs
     id="defs8">
    <filter
       style="color-interpolation-filters:sRGB"
       id="b"
       x="-0.059358315"
       y="-0.59821256"
       width="1.1187166"
       height="2.1964251">
      <feGaussianBlur
         stdDeviation="8.367"
         id="feGaussianBlur2" />
    </filter>
    <filter
       style="color-interpolation-filters:sRGB"
       id="a"
       x="-0.18022147"
       y="-0.20541099"
       width="1.3604429"
       height="1.410822">
      <feGaussianBlur
         stdDeviation="7.505"
         id="feGaussianBlur5" />
    </filter>
  </defs>
  <path
     d="M18.89 62.5V18.591h100v87.813h-100z"
     fill="none"
     style="stroke-width:28.4433"
     id="path14" />
  <path
     d="M140.713 77.109q.312-.365.52-.625.209-.287.417-.521.235-.235.443-.469.208-.26.469-.52.469.051.885.051h.834q1.223 0 2.135-.416.911-.443 1.615-1.433.729-.99 1.276-2.682.572-1.719 1.093-4.27.808-3.777 1.407-6.225.625-2.474 1.25-4.114.65-1.667 1.38-2.76.729-1.094 1.797-2.162 1.276-1.276 2.343-2.083 1.068-.834 2.084-1.355 1.041-.547 2.057-.755 1.016-.234 2.24-.234.599 0 1.067.026.495.026 1.302.13l-2.083 2.995q-.755-.052-1.276-.078-.495-.026-.807-.026h-1.12q-3.255 0-4.375 3.255-.26.807-.547 1.77-.26.938-.651 2.318-.365 1.355-.781 3.204-.417 1.822-1.016 4.322-.469 2.084-.86 3.386-.364 1.276-.833 2.161-.442.86-1.12 1.615-.65.755-1.718 1.693-.417.312-.781.677-.339.338-.651.729h10.078q3.411 0 5.442-.13 2.032-.157 3.308-.886 1.276-.755 2.24-2.291.963-1.563 2.239-4.271l.573 1.015q-.313.808-.781 1.85-.443 1.015-.912 2.03-.443 1.016-.86 1.876-.416.859-.65 1.328-.651 1.328-1.72 1.875-1.04.52-2.968.52h-1.12q-.468 0-1.484-.052t-2.865-.13q-1.822-.078-5.13-.234-2.89-.104-4.974-.182-2.083-.079-3.099-.079-1.224 0-2.343.026-1.12.026-2.97.13zm39.276-4.167q0-1.64.312-3.49.339-1.849.834-3.567.52-1.745 1.198-3.23.703-1.51 1.51-2.395.86-1.016 2.266-2.11 1.406-1.093 2.89-1.9.86-.47 1.51-.652.678-.208 1.537-.208 1.38 0 2.214.781.833.781.833 2.162 0 1.875-.911 3.307-.912 1.432-3.1 3.099-1.171.911-2.109 1.588-.937.651-1.745 1.224-.78.547-1.588 1.068-.781.495-1.693 1.068 0 1.172.052 1.77.052.574.209 1.225.26 1.067 1.041 1.692.782.6 1.797.6 1.537 0 3.542-1.147 2.005-1.145 5.026-3.828v1.563q-6.458 6.458-11.25 6.458-2.031 0-3.203-1.354-1.172-1.38-1.172-3.724zm4.114-5.182q2.136-1.328 3.516-2.37t2.188-1.927q.807-.912 1.12-1.771.312-.86.312-1.875 0-1.016-.39-1.589-.391-.598-1.042-.598-.912 0-1.771.78-.834.782-1.615 2.136t-1.406 3.23q-.6 1.848-.912 3.984zm34.073 9.505 2.188-2.188h7.63q.703-2.395 1.563-5.729.885-3.333 1.77-6.979.912-3.672 1.771-7.266.86-3.593 1.51-6.484-2.708.26-4.348.86-1.641.572-3.021 1.692-1.38 1.172-2.188 3.047-.807 1.875-.807 3.906 0 .964.156 1.797.183.807.651 2.188l-4.01 2.396q-.52-1.277-.703-2.188-.182-.937-.182-2.11 0-3.255 1.718-5.963 1.745-2.734 5.104-4.61 1.927-1.12 3.88-1.666 1.98-.573 5.027-.885l3.567-1.823-.312 1.328q.807-.052 1.302-.052h.937q4.74 0 6.98 1.328 2.24 1.302 2.24 4.01 0 3.047-1.694 5.677-1.666 2.605-4.557 4.141-2.448 1.328-4.74 2.005-2.291.651-4.947.808-.209.807-.365 1.38l-.26 1.093q-.13.521-.287 1.198-.156.651-.442 1.72-.157.754-.339 1.536-.182.755-.339 1.614l-.494 2.031q1.77 0 2.968-.026t2.162-.078q.963-.052 1.823-.13.885-.078 2.005-.182l-.104.469q-1.12.52-1.953.911-.808.365-1.719.625-.911.234-2.083.339-1.172.104-2.943.182-1.745.078-4.27.078h-6.12zm17.006-14.818q.65.104 1.015.156.365.053.86.053 1.927 0 3.541-.756 1.615-.755 2.813-2.057 1.224-1.302 1.875-3.073.677-1.797.677-3.932 0-2.292-1.328-3.516-1.302-1.224-3.75-1.224-.417 0-1.016.026-.573.026-1.172.078zm18.208 10.495q0-1.64.312-3.49.339-1.849.834-3.567.52-1.745 1.198-3.23.703-1.51 1.51-2.395.86-1.016 2.266-2.11 1.406-1.093 2.89-1.9.86-.47 1.51-.652.678-.208 1.537-.208 1.38 0 2.214.781.833.781.833 2.162 0 1.875-.911 3.307-.912 1.432-3.1 3.099-1.171.911-2.109 1.588-.937.651-1.745 1.224-.78.547-1.588 1.068-.781.495-1.693 1.068 0 1.172.052 1.77.052.574.209 1.225.26 1.067 1.041 1.692.782.6 1.797.6 1.537 0 3.542-1.147 2.005-1.145 5.026-3.828v1.563q-6.458 6.458-11.25 6.458-2.031 0-3.203-1.354-1.172-1.38-1.172-3.724zm4.114-5.182q2.136-1.328 3.516-2.37t2.188-1.927q.807-.912 1.12-1.771.312-.86.312-1.875 0-1.016-.39-1.589-.391-.598-1.042-.598-.912 0-1.771.78-.834.782-1.615 2.136t-1.406 3.23q-.6 1.848-.912 3.984zm19.198-6.823q.209-.156.391-.313.182-.156.39-.26.704-.52.912-.677.208-.182.651-.443l.781-.052h1.302l.938-.052q.156-.86.312-1.537.183-.703.365-1.458t.365-1.588q.208-.86.468-2.084.521-.208.73-.338l1.25-.573q.598-.26 1.041-.443.443-.208 1.198-.625-.86 3.36-1.38 5.495-.495 2.135-.755 3.15h6.823l-2.032 1.537-1.588.157-2.136.052-1.562.052q-.469 2.031-.912 3.828-.416 1.77-.755 3.177-.312 1.38-.469 2.292-.156.885-.156 1.172 0 .911.495 1.718.52.782 1.12.782.52 0 1.979-.756 1.484-.78 4.453-2.552l-.104 1.328q-3.906 2.943-6.458 4.532-2.552 1.562-3.464 1.562-.365 0-.755-.338-.365-.313-.677-.808-.313-.52-.521-1.146-.182-.65-.182-1.302v-.729q0-.338.078-.86.104-.546.286-1.327.182-.808.495-2.162.339-1.354.807-3.385.469-2.031 1.172-5.026h-3.672zm21.75.651.105-1.51q3.255-2.24 5.494-3.464 2.24-1.224 2.943-1.224.651 0 .625.547 0 .156-.104.729-.104.547-.469 2.031-.338 1.459-.99 4.063-.625 2.604-1.692 6.927-.469 1.875-.469 2.734 0 1.485.964 1.485.208 0 .494-.079.287-.078.808-.312.547-.26 1.406-.703.86-.443 2.24-1.198l.911-.495-.208 1.51q-.417.26-.782.47-.338.208-.729.442l-3.02 1.953q-2.188 1.38-3.334 1.953-1.146.573-1.849.573-.599 0-.937-.599-.339-.573-.339-1.536 0-.521.026-.964.026-.443.26-1.406.235-.99.73-2.917.52-1.927 1.484-5.39.313-1.172.495-1.901.208-.756.312-1.224.104-.495.13-.808.026-.338.026-.599 0-.911-.65-.911-.157 0-.365.052t-.625.26q-.39.183-1.094.521-.677.339-1.797.99zm6.563-14.35q.417-.26.755-.494.365-.26.625-.469.208-.104.443-.286.26-.182 1.093-.938.209-.156.365-.312.182-.156.39-.287.209.417.313.704.313.807.443 1.041.156.235.417.781.312.47.65 1.12-.703.521-1.12.86-.39.312-.728.573-.339.26-.677.599-.339.312-.938.833-.911-1.276-1.354-2.031-.417-.782-.677-1.693zm12.531 13.699q.208-.156.39-.313.183-.156.391-.26.703-.52.912-.677.208-.182.65-.443l.782-.052h1.302l.938-.052q.156-.86.312-1.537.182-.703.365-1.458.182-.755.364-1.588.209-.86.47-2.084.52-.208.728-.338l1.25-.573q.6-.26 1.042-.443.443-.208 1.198-.625-.86 3.36-1.38 5.495-.495 2.135-.756 3.15h6.823l-2.03 1.537-1.59.157-2.135.052-1.562.052q-.47 2.031-.912 3.828-.416 1.77-.755 3.177-.313 1.38-.469 2.292-.156.885-.156 1.172 0 .911.495 1.718.52.782 1.12.782.52 0 1.979-.756 1.484-.78 4.453-2.552l-.104 1.328q-3.907 2.943-6.459 4.532-2.552 1.562-3.463 1.562-.365 0-.755-.338-.365-.313-.677-.808-.313-.52-.521-1.146-.183-.65-.183-1.302v-.729q0-.338.078-.86.105-.546.287-1.327.182-.808.495-2.162.338-1.354.807-3.385.469-2.031 1.172-5.026h-3.672zm35.87 15.911 2.031-3.75q.755.26 1.198.339.443.052 1.146.052 1.875 0 3.281-.677 1.406-.677 3.125-2.37.52-.469 1.38-1.432.86-.964 1.823-2.11.964-1.145 1.927-2.343.99-1.224 1.797-2.214l9.219-11.953q-1.12-.104-1.667-.104-.52 0-1.25-.104l-2.786-.339q-.521-.052-1.042-.078-.495-.026-.937-.026-2.943 0-4.558 1.276-1.614 1.276-1.614 3.594 0 .911.234 1.953.235 1.015.886 2.995l-3.959 2.135q-.416-1.172-.573-1.953-.156-.781-.156-1.667 0-2.187.938-4.062.963-1.875 3.099-3.88 3.723-3.672 7.473-3.698.86 0 1.98.13t2.916.416q.808.105 1.25.183l.782.13q.338.052.546.052h.47q.416 0 .676-.052.287-.052.573-.208.313-.157.651-.495.339-.365.938-.964l.729.547q-.417 2.136-.86 4.688l-.859 5.26q-.417 2.682-.781 5.365l-.677 4.922q-.287 2.265-.443 4.01-.156 1.719-.156 2.578 0 1.38.547 1.901.573.495 2.057.495.703 0 1.172-.026.495-.026 1.667-.13l1.224-.105-.86 1.277-1.042.182q-.442.078-1.197.234-.73.13-2.006.365-1.25.234-3.437.599-.86.208-1.537.234-.52 0-.885-.338-.339-.313-.339-.834 0-.416.079-.99.078-.572.182-1.301.156-1.224.312-2.188.105-.755.209-1.432.13-.703.234-1.406l.26-1.928q-1.536-.104-3.906-.156-2.344-.052-5.547-.052-2.656 3.047-4.53 4.974-1.85 1.901-3.308 2.995-1.432 1.094-2.682 1.536-1.25.417-2.579.417-.755 0-1.354-.104-.573-.104-1.484-.365zm17.604-11.64h8.099l2.187-13.49zm21.906 8.906q0-.26.026-.547.026-.312.078-.677l.964-.651q.364-.26.703-.443.365-.182.677-.39l.625-.417q.339-.234.6-.443.051 1.38.155 2.136.13.729.39 1.38.912 1.719 2.605 1.719.807 0 1.589-.365.807-.39 1.432-.99.651-.625 1.068-1.328.442-.729.442-1.484 0-.469-.104-.833-.104-.391-.443-.782-.312-.416-.911-.885-.573-.495-1.589-1.172-1.536-1.068-2.213-2.11-.651-1.041-.651-2.265 0-1.328.833-2.76.86-1.459 2.162-2.657 1.328-1.198 2.89-1.979 1.589-.781 3.021-.781 1.12 0 1.927.443.834.416 1.64 1.38-.26.364-.416.625-.156.234-.416.495-.235.26-.625.65-.365.365-1.042.99-.912-1.12-1.64-1.588-.704-.469-1.667-.469-1.38 0-2.37 1.016-.99.99-.99 2.395 0 1.068.573 1.875.599.782 1.98 1.693 1.119.703 1.77 1.172.677.469 1.016.938.364.442.468.937.105.469.105 1.224 0 2.083-1.407 4.036-1.406 1.928-3.88 3.308-1.224.703-2.708 1.093-1.485.417-2.708.417-1.771 0-2.865-1.068-1.094-1.067-1.094-2.838zm24.328-13.177q.209-.156.391-.313.182-.156.39-.26.704-.52.912-.677.208-.182.651-.443l.781-.052h1.302l.938-.052q.156-.86.312-1.537.183-.703.365-1.458t.365-1.588q.208-.86.468-2.084.521-.208.73-.338l1.25-.573q.598-.26 1.041-.443.443-.208 1.198-.625-.86 3.36-1.38 5.495-.495 2.135-.755 3.15h6.823l-2.032 1.537-1.588.157-2.136.052-1.562.052q-.469 2.031-.912 3.828-.416 1.77-.755 3.177-.312 1.38-.469 2.292-.156.885-.156 1.172 0 .911.495 1.718.52.782 1.12.782.52 0 1.979-.756 1.484-.78 4.453-2.552l-.104 1.328q-3.906 2.943-6.458 4.532-2.552 1.562-3.464 1.562-.365 0-.755-.338-.365-.313-.677-.808-.313-.52-.521-1.146-.182-.65-.182-1.302v-.729q0-.338.078-.86.104-.546.286-1.327.183-.808.495-2.162.339-1.354.807-3.385.47-2.031 1.172-5.026h-3.672zm21.75.156.157-1.432q1.224-.755 2.63-1.485 1.432-.755 2.682-1.354 1.25-.625 2.188-1.015.937-.417 1.198-.417.26 0 .442.182.183.156.183.417 0 .208-.079.625-.078.39-.39 1.719l-.156.859q.312-.208.52-.365.235-.182.547-.416.313-.235.782-.573.494-.365 1.302-.938 2.135-1.484 3.515-1.51.417 0 .808.078.416.078 1.171.365l-1.614 5.052q-.703-.912-1.328-1.276-.6-.365-1.485-.365-1.067 0-2.083.39-1.016.391-2.396 1.46l-4.01 15.207-4.115 1.537 3.203-11.667q.469-1.77.808-3.385.364-1.64.364-2.214 0-1.067-1.015-1.067-.26 0-.47.052-.208.052-.624.208-.39.156-1.042.495-.625.312-1.693.833zm20.683 11.641q0-1.98.416-3.985.443-2.005 1.198-3.776.781-1.797 1.85-3.255 1.067-1.458 2.343-2.422 2.396-1.77 4.74-2.838 2.37-1.068 3.958-1.068 2.135 0 3.463 1.38 1.355 1.354 1.355 3.49 0 1.38-.313 3.02-.286 1.615-.833 3.23-.521 1.588-1.224 3.047-.677 1.458-1.485 2.578-1.432 1.875-5.39 4.062-1.875 1.016-3.1 1.406-1.223.417-2.395.417-2.083 0-3.333-1.432-1.25-1.458-1.25-3.854zm4.114-2.24q0 2.292.964 3.646.963 1.354 2.604 1.354 1.536 0 2.917-1.198 1.406-1.198 2.578-3.49.963-1.979 1.484-3.932.547-1.979.547-3.698 0-2.5-.938-3.88-.911-1.38-2.63-1.38-1.38 0-2.734 1.12-1.328 1.12-2.396 2.916-1.068 1.771-1.745 4.01-.65 2.24-.65 4.532z"
     aria-label="Le Petit Astro"
     style="fill:#fff"
     id="path18" />
  <path
     id="path361"
     style="color:#000000;opacity:1;fill:#ffffff;fill-rule:evenodd;stroke-width:1;stroke-linecap:round;stroke-linejoin:round"
     d="M 69 47.503906 C 57.206731 47.503906 46.405666 48.690033 37.873047 50.677734 C 38.168427 51.266798 38.350214 51.920489 38.390625 52.611328 C 46.715851 50.682136 57.373013 49.503906 69 49.503906 C 82.453732 49.503906 94.636962 51.069824 103.375 53.566406 C 107.74403 54.814698 111.25036 56.302472 113.58984 57.882812 C 115.92935 59.463154 117 61.0438 117 62.503906 C 117 63.964014 115.92935 65.54466 113.58984 67.125 C 111.25036 68.70534 107.74403 70.193114 103.375 71.441406 C 94.636962 73.93799 82.453732 75.503906 69 75.503906 C 55.546268 75.503906 43.363038 73.93799 34.625 71.441406 C 30.25598 70.193114 26.749654 68.70534 24.410156 67.125 C 22.07066 65.54466 21 63.964014 21 62.503906 C 21 61.0438 22.07066 59.463154 24.410156 57.882812 C 26.43189 56.517123 29.367326 55.230273 32.935547 54.097656 L 32.935547 52.003906 C 28.972586 53.214107 25.675838 54.614285 23.289062 56.226562 C 20.669506 57.996086 19 60.098032 19 62.503906 C 19 64.909782 20.669506 67.011728 23.289062 68.78125 C 25.90862 70.550772 29.579915 72.078081 34.078125 73.363281 C 43.074545 75.933689 55.39186 77.503906 69 77.503906 C 82.60814 77.503906 94.925456 75.933689 103.92188 73.363281 C 108.42008 72.078081 112.09138 70.550772 114.71094 68.78125 C 117.33048 67.011728 119 64.909782 119 62.503906 C 119 60.098032 117.33048 57.996086 114.71094 56.226562 C 112.09138 54.45704 108.42008 52.929735 103.92188 51.644531 C 94.925456 49.074127 82.60814 47.503906 69 47.503906 z " />
  <path
     id="ellipse363"
     style="color:#000000;opacity:1;fill:#ffffff;fill-rule:evenodd;stroke-width:1;stroke-linecap:round;stroke-linejoin:round"
     d="M 46.78125 18.496094 C 46.52526 18.498294 46.272602 18.513729 46.023438 18.542969 A 1.0001 1.0001 0 0 0 46.019531 18.542969 C 45.295007 18.631769 44.606847 18.850127 43.996094 19.203125 A 1.0001 1.0001 0 0 0 43.992188 19.207031 C 42.558038 20.044044 41.630461 21.55082 41.140625 23.425781 C 40.650787 25.300742 40.563123 27.587926 40.8125 30.257812 C 41.265079 35.103274 42.863319 41.21619 45.527344 48.191406 C 46.20249 48.087491 46.908943 48.001238 47.601562 47.90625 C 44.891265 40.883133 43.242857 34.7197 42.808594 30.070312 C 42.573571 27.554111 42.679634 25.469951 43.082031 23.929688 C 43.484035 22.390928 44.138152 21.43772 45 20.933594 L 45.003906 20.933594 C 45.368504 20.723444 45.777243 20.586736 46.257812 20.527344 C 48.937181 20.212874 53.668514 22.720288 59.003906 27.769531 C 63.774232 32.284011 69.068556 38.846727 74.257812 46.585938 C 75.128257 46.612047 75.975423 46.656507 76.832031 46.695312 C 71.293679 38.265155 65.585085 31.239667 60.382812 26.316406 C 55.224204 21.434465 50.621077 18.462904 46.78125 18.496094 z M 92.488281 76.816406 C 91.813268 76.920387 91.106553 77.006509 90.414062 77.101562 C 93.126561 84.131065 94.779035 90.295236 95.210938 94.945312 C 95.444645 97.461504 95.334064 99.547811 94.929688 101.08594 C 94.525707 102.62257 93.868283 103.56894 93.003906 104.07031 L 93 104.07422 C 91.879606 104.70861 90.26286 104.66868 88.101562 103.76562 C 85.936454 102.86098 83.326576 101.10662 80.492188 98.605469 C 79.821356 98.013507 79.135949 97.371526 78.441406 96.693359 L 78.441406 99.429688 C 78.683657 99.650798 78.932175 99.89395 79.171875 100.10547 C 82.111346 102.69935 84.850317 104.57634 87.332031 105.61328 C 89.813748 106.65022 92.138547 106.8639 93.992188 105.80859 A 1.0001 1.0001 0 0 0 93.996094 105.80859 A 1.0001 1.0001 0 0 0 94 105.80469 C 95.438366 104.97223 96.370644 103.46759 96.863281 101.59375 C 97.355919 99.719905 97.447232 97.431951 97.199219 94.761719 C 96.749135 89.915912 95.153399 83.796766 92.488281 76.816406 z M 61.171875 78.3125 C 65.73546 85.258172 70.390808 91.213595 74.777344 95.837891 C 75.143663 95.261732 75.624783 94.764268 76.1875 94.378906 C 72.210857 90.130105 67.962649 84.682575 63.761719 78.421875 C 62.885902 78.395705 62.033697 78.351516 61.171875 78.3125 z " />
  <path
     id="ellipse365"
     style="color:#000000;opacity:1;fill:#ffffff;fill-rule:evenodd;stroke-width:1;stroke-linecap:round;stroke-linejoin:round"
     d="M 90.808594 18.511719 C 88.042961 18.661809 84.88325 20.33416 81.363281 23.097656 C 77.757069 25.928862 73.778603 29.985313 69.65625 35.0625 C 70.086214 35.600019 70.5141 36.149422 70.945312 36.707031 C 75.092339 31.560543 79.092237 27.42311 82.601562 24.667969 C 86.435462 21.658007 89.707669 20.302439 91.746094 20.527344 L 91.75 20.53125 C 92.227958 20.59143 92.636943 20.723759 93 20.933594 C 93.865556 21.434136 94.52506 22.384869 94.929688 23.921875 C 95.334314 25.458883 95.443971 27.539939 95.210938 30.054688 C 95.071236 31.562242 94.789506 33.244187 94.398438 35.048828 L 96.458984 35.048828 C 96.808758 33.339861 97.065764 31.724486 97.203125 30.242188 C 97.450443 27.573344 97.356304 25.282948 96.863281 23.410156 C 96.370257 21.537369 95.43825 20.034847 94 19.203125 C 93.389248 18.850128 92.704995 18.631779 91.980469 18.542969 A 1.0001 1.0001 0 0 0 91.96875 18.539062 C 91.589823 18.497033 91.203683 18.490289 90.808594 18.511719 z M 93.134766 39.957031 C 92.400367 42.444926 91.495816 45.102644 90.414062 47.90625 C 91.107832 48.00148 91.815963 48.087217 92.492188 48.191406 C 93.524567 45.487267 94.390626 42.915788 95.097656 40.494141 C 94.395374 40.451585 93.730839 40.262621 93.134766 39.957031 z M 45.527344 76.816406 C 42.863876 83.790593 41.265 89.905403 40.8125 94.75 C 40.563124 97.419886 40.650789 99.710983 41.140625 101.58594 C 41.630464 103.46091 42.558058 104.96373 43.992188 105.80078 A 1.0001 1.0001 0 0 0 44.003906 105.80859 A 1.0001 1.0001 0 0 0 44.007812 105.80859 A 1.0001 1.0001 0 0 0 44.011719 105.8125 C 45.458285 106.62229 47.221671 106.6573 49.089844 106.13672 C 50.958022 105.61614 52.989942 104.54623 55.175781 102.99219 C 59.146765 100.16898 63.641214 95.722701 68.347656 89.925781 C 67.915326 89.385298 67.484654 88.850254 67.050781 88.289062 C 62.330296 94.142939 57.819969 98.655776 54.011719 101.36328 C 51.951015 102.82836 50.092278 103.78638 48.554688 104.21484 C 47.020865 104.64225 45.866018 104.55067 44.996094 104.06641 C 44.137343 103.56137 43.479141 102.61311 43.078125 101.07812 C 42.675728 99.53787 42.569669 97.453699 42.804688 94.9375 C 43.238954 90.288117 44.891268 84.124671 47.601562 77.101562 C 46.908945 77.006573 46.202489 76.920323 45.527344 76.816406 z " />
  <g
     id="path524"
     style="opacity:1;fill:#ffffff;stroke-width:0.5"
     transform="matrix(2,0,0,2,-19,-18.495957)">
    <path
       id="path677"
       style="color:#000000;fill:#ffffff;fill-rule:evenodd;stroke-width:0.5;stroke-linecap:round;stroke-linejoin:round;-inkscape-stroke:none"
       d="m 44,37 c -1.927068,0 -3.5,1.572932 -3.5,3.5 0,1.927068 1.572932,3.5 3.5,3.5 1.927068,0 3.5,-1.572932 3.5,-3.5 0,-1.927068 -1.572932,-3.5 -3.5,-3.5 z" />
  </g>
  <circle
     style="opacity:1;fill:#ffffff;fill-rule:evenodd;stroke:none;stroke-width:1;stroke-linecap:round;stroke-linejoin:round"
     id="path669"
     cx="33.400002"
     cy="52.904045"
     r="4" />
  <circle
     style="opacity:1;fill:#ffffff;fill-rule:evenodd;stroke:none;stroke-width:1;stroke-linecap:round;stroke-linejoin:round"
     id="circle671"
     cx="95.400002"
     cy="35.504044"
     r="4" />
  <circle
     style="opacity:1;fill:#ffffff;fill-rule:evenodd;stroke:none;stroke-width:1;stroke-linecap:round;stroke-linejoin:round"
     id="circle673"
     cx="79"
     cy="98.504044"
     r="4" />
</svg>
