<svg width="371.868" height="88.007" xml:space="preserve" xmlns="http://www.w3.org/2000/svg"><g style="font-size:40px;line-height:1.25;font-family:'SF Cartoonist Hand';-inkscape-font-specification:'SF Cartoonist Hand';letter-spacing:0;word-spacing:0;fill:#fff"><path d="M127.837 26.34h1.92v31.552h17.344v1.92h-19.264v-1.92zm31.552 12.672q3.136 0 5.632 1.984 2.56 1.984 3.584 5.184l.32.832-16.256 7.424q2.368 4.288 6.72 4.288 2.688 0 4.864-1.856l1.216 1.408q-2.688 2.368-6.08 2.368-4.032 0-6.912-3.2t-2.88-7.616q0-4.416 2.88-7.616 2.88-3.2 6.912-3.2zm0 1.92q-3.264 0-5.568 2.624-2.304 2.56-2.304 6.272 0 1.472.384 2.816l14.592-6.656q-.96-2.304-2.88-3.648-1.92-1.408-4.224-1.408zM189.34 26.34h7.17q4.096 0 6.976 3.2t2.88 7.68q0 4.48-2.88 7.68-2.88 3.2-6.976 3.2h-5.248v11.712h-1.92zm1.92 1.92v17.92h5.249q3.264 0 5.568-2.624 2.368-2.624 2.368-6.336t-2.368-6.336q-2.304-2.624-5.568-2.624zm27.457 10.752q3.136 0 5.632 1.984 2.56 1.984 3.584 5.184l.32.832-16.256 7.424q2.368 4.288 6.72 4.288 2.688 0 4.864-1.856l1.216 1.408q-2.688 2.368-6.08 2.368-4.032 0-6.912-3.2t-2.88-7.616q0-4.416 2.88-7.616 2.88-3.2 6.912-3.2zm0 1.92q-3.264 0-5.568 2.624-2.304 2.56-2.304 6.272 0 1.472.384 2.816l14.592-6.656q-.96-2.304-2.88-3.648-1.92-1.408-4.224-1.408zm16.64-8.128 1.92-1.024v7.744h5.248v1.92h-5.248v18.368h-1.92V41.444h-3.328v-1.92h3.328zm12.672 1.856q.448-.448 1.088-.448.64 0 1.024.448.384.384.384 1.024 0 1.408-1.408 1.408-.64 0-1.088-.384-.384-.384-.384-1.024t.384-1.024zm.128 4.864h1.92v20.288h-1.92zm10.176-6.72 1.92-1.024v7.744h5.248v1.92h-5.248v18.368h-1.92V41.444h-3.328v-1.92h3.328zm35.135-6.464h1.856l9.408 33.28-1.856.512-2.88-10.112h-11.2l-2.88 10.112-1.856-.512zm.96 3.776-5.12 17.984h10.176zm20.992 8.704q1.856 0 3.52 1.408l-1.28 1.472q-1.152-.96-2.176-.96-.448 0-.64.064-1.216.32-1.856 1.728-.384.768-.384 1.6 0 .64.192 1.216.576 1.664 2.624 2.432 3.84 1.472 4.992 4.48.448 1.216.448 2.24 0 1.6-.832 3.072-1.472 2.496-4.416 3.008-.64.128-1.088.128-2.688 0-5.312-1.984l1.152-1.536q2.112 1.6 4.16 1.6.512 0 .768-.064 2.048-.384 3.072-2.112.576-.96.576-2.112 0-.704-.32-1.536-.896-2.176-3.904-3.392-2.88-1.152-3.712-3.584-.32-1.088-.32-1.856 0-1.28.576-2.432.96-2.176 3.072-2.752.32-.128 1.088-.128zm11.904-6.016 1.92-1.024v7.744h5.248v1.92h-5.248v18.368h-1.92V41.444h-3.328v-1.92h3.328zm22.08 6.208v1.92q-3.264 0-5.568 2.624-2.304 2.56-2.304 6.272v9.984h-1.92V39.524h1.92v3.904q3.008-4.416 7.872-4.416zm5.76 3.2q2.88-3.2 6.912-3.2t6.912 3.2q2.88 3.2 2.88 7.616 0 4.416-2.88 7.616-2.88 3.2-6.912 3.2t-6.912-3.2q-2.88-3.2-2.88-7.616 0-4.416 2.88-7.616zm12.48 1.344q-2.304-2.624-5.568-2.624t-5.568 2.624q-2.304 2.56-2.304 6.272t2.304 6.336q2.304 2.56 5.568 2.56t5.568-2.56q2.304-2.624 2.304-6.336t-2.304-6.272z" style="font-size:64px;font-family:Colombia;-inkscape-font-specification:'Colombia, Normal'" aria-label="Le Petit Astro"/></g><g transform="translate(-7.73)"><path style="opacity:.2;fill:#fff;fill-rule:evenodd;stroke-width:1.00001;stroke-linecap:round;stroke-linejoin:round" d="M34.77.71a49.45 14.6 60 0 0-1.703.57 49.45 14.6 60 0 0 2.222 29.831A49.45 14.6 0 0 0 8.34 44.103a49.45 14.6 0 0 0 26.95 12.993 14.6 49.45 30 0 0-2.223 29.834A14.6 49.45 30 0 0 57.79 70.086 49.45 14.6 60 0 0 82.516 86.93a49.45 14.6 60 0 0-2.217-29.836 49.45 14.6 0 0 0 26.942-12.99 49.45 14.6 0 0 0-26.938-12.999A14.6 49.45 30 0 0 82.516 1.28 14.6 49.45 30 0 0 57.79 18.121 49.45 14.6 60 0 0 34.77.711z"/><path d="M7.73 44.004V.095h100v87.813h-100z" fill="none" style="stroke-width:28.4433"/><path style="color:#000;opacity:1;fill:#fff;fill-rule:evenodd;stroke-width:1;stroke-linecap:round;stroke-linejoin:round" d="M57.84 29.008c-11.793 0-22.594 1.186-31.126 3.174a4.95 4.95 0 0 1 .517 1.933c8.326-1.929 18.983-3.107 30.61-3.107 13.453 0 25.637 1.566 34.375 4.063 4.369 1.248 7.875 2.736 10.215 4.316 2.34 1.58 3.41 3.16 3.41 4.621 0 1.46-1.07 3.04-3.41 4.621-2.34 1.58-5.846 3.068-10.215 4.317-8.738 2.496-20.922 4.062-34.375 4.062-13.454 0-25.637-1.566-34.375-4.062-4.37-1.249-7.876-2.737-10.215-4.317-2.34-1.58-3.41-3.16-3.41-4.621 0-1.46 1.07-3.04 3.41-4.621 2.022-1.366 4.957-2.653 8.525-3.785v-2.094c-3.963 1.21-7.26 2.61-9.646 4.223-2.62 1.77-4.29 3.871-4.29 6.277s1.67 4.508 4.29 6.277c2.62 1.77 6.29 3.297 10.789 4.582 8.996 2.57 21.314 4.141 34.922 4.141 13.608 0 25.925-1.57 34.922-4.14 4.498-1.286 8.17-2.813 10.789-4.583 2.62-1.77 4.289-3.871 4.289-6.277s-1.67-4.508-4.29-6.277c-2.619-1.77-6.29-3.297-10.788-4.582-8.997-2.57-21.314-4.141-34.922-4.141zM35.622 0a7.018 7.018 0 0 0-.758.047 1 1 0 0 0-.004 0 5.325 5.325 0 0 0-2.023.66 1 1 0 0 0-.004.004c-1.434.837-2.362 2.344-2.852 4.219-.49 1.875-.577 4.162-.328 6.832.453 4.845 2.051 10.958 4.715 17.934.675-.104 1.382-.19 2.074-.286-2.71-7.023-4.358-13.186-4.793-17.836-.235-2.516-.129-4.6.274-6.14.402-1.539 1.056-2.492 1.918-2.996h.004a3.27 3.27 0 0 1 1.254-.407c2.679-.314 7.41 2.193 12.746 7.243 4.77 4.514 10.064 11.077 15.254 18.816.87.026 1.717.07 2.574.11-5.539-8.43-11.247-15.456-16.45-20.38-5.157-4.88-9.76-7.852-13.6-7.82zm45.707 58.32c-.675.105-1.382.19-2.074.286 2.712 7.03 4.365 13.193 4.797 17.843.233 2.517.123 4.603-.282 6.141-.404 1.537-1.061 2.483-1.925 2.984l-.004.004c-1.12.635-2.737.595-4.899-.308-2.165-.905-4.775-2.66-7.609-5.16a55.885 55.885 0 0 1-2.05-1.912v2.736c.241.221.49.464.73.676 2.94 2.594 5.678 4.47 8.16 5.508 2.482 1.036 4.806 1.25 6.66.195a1 1 0 0 0 .004 0 1 1 0 0 0 .004-.004c1.438-.833 2.37-2.337 2.863-4.211.493-1.874.584-4.162.336-6.832-.45-4.846-2.046-10.965-4.711-17.945zm-31.316 1.497c4.563 6.945 9.219 12.9 13.605 17.525a5.063 5.063 0 0 1 1.41-1.459c-3.976-4.249-8.225-9.696-12.426-15.957-.875-.026-1.728-.07-2.59-.11zM79.65.016c-2.766.15-5.926 1.822-9.446 4.586-3.606 2.831-7.585 6.887-11.707 11.965.43.537.858 1.087 1.29 1.644 4.146-5.146 8.146-9.284 11.655-12.039 3.834-3.01 7.106-4.365 9.145-4.14l.004.003c.478.06.887.193 1.25.403.865.5 1.525 1.451 1.93 2.988.404 1.537.514 3.618.28 6.133-.139 1.507-.42 3.19-.812 4.994h2.06c.35-1.709.608-3.324.745-4.807.247-2.669.153-4.959-.34-6.832-.493-1.872-1.425-3.375-2.863-4.207a5.306 5.306 0 0 0-2.02-.66 1 1 0 0 0-.011-.004 7.045 7.045 0 0 0-1.16-.027zm2.326 21.445a103.834 103.834 0 0 1-2.721 7.95c.694.095 1.402.18 2.078.285a101.08 101.08 0 0 0 2.605-7.698 4.952 4.952 0 0 1-1.962-.537zm-47.608 36.86c-2.663 6.974-4.262 13.089-4.715 17.933-.25 2.67-.161 4.961.328 6.836.49 1.875 1.418 3.378 2.852 4.215a1 1 0 0 0 .012.008 1 1 0 0 0 .004 0 1 1 0 0 0 .003.004c1.447.81 3.21.845 5.079.324 1.868-.52 3.9-1.59 6.086-3.144 3.97-2.824 8.465-7.27 13.171-13.067-.432-.54-.863-1.075-1.296-1.637-4.721 5.854-9.231 10.367-13.04 13.075-2.06 1.465-3.919 2.423-5.457 2.851-1.533.428-2.688.336-3.558-.148-.859-.505-1.517-1.453-1.918-2.988-.403-1.54-.509-3.625-.274-6.141.435-4.65 2.087-10.813 4.797-17.836-.692-.095-1.399-.181-2.074-.285z"/><g style="opacity:1;fill:#fff;stroke-width:.5"><path style="color:#000;fill:#fff;fill-rule:evenodd;stroke-width:.5;stroke-linecap:round;stroke-linejoin:round;-inkscape-stroke:none" d="M44 37a3.508 3.508 0 0 0-3.5 3.5c0 1.927 1.573 3.5 3.5 3.5s3.5-1.573 3.5-3.5S45.927 37 44 37z" transform="matrix(2 0 0 2 -30.16 -36.992)"/></g><circle style="opacity:1;fill:#fff;fill-rule:evenodd;stroke:none;stroke-width:1;stroke-linecap:round;stroke-linejoin:round" cx="22.241" cy="34.408" r="4"/><circle style="opacity:1;fill:#fff;fill-rule:evenodd;stroke:none;stroke-width:1;stroke-linecap:round;stroke-linejoin:round" cx="84.241" cy="17.008" r="4"/><circle style="opacity:1;fill:#fff;fill-rule:evenodd;stroke:none;stroke-width:1;stroke-linecap:round;stroke-linejoin:round" cx="67.841" cy="80.008" r="4"/></g></svg>