<?xml version="1.0" encoding="UTF-8" standalone="no"?>
<svg
   width="460.12"
   height="88.007156"
   version="1.1"
   id="svg20"
   sodipodi:docname="logo.svg"
   inkscape:version="1.2 (1:1.2.1+202207142221+cd75a1ee6d)"
   xmlns:inkscape="http://www.inkscape.org/namespaces/inkscape"
   xmlns:sodipodi="http://sodipodi.sourceforge.net/DTD/sodipodi-0.dtd"
   xmlns="http://www.w3.org/2000/svg"
   xmlns:svg="http://www.w3.org/2000/svg">
  <sodipodi:namedview
     id="namedview22"
     pagecolor="#333333"
     bordercolor="#666666"
     borderopacity="1.0"
     inkscape:showpageshadow="2"
     inkscape:pageopacity="0"
     inkscape:pagecheckerboard="0"
     inkscape:deskcolor="#d1d1d1"
     showgrid="false"
     inkscape:zoom="1.888"
     inkscape:cx="233.05085"
     inkscape:cy="30.190678"
     inkscape:window-width="1920"
     inkscape:window-height="1043"
     inkscape:window-x="0"
     inkscape:window-y="0"
     inkscape:window-maximized="1"
     inkscape:current-layer="svg20">
    <inkscape:grid
       type="xygrid"
       id="grid305"
       originx="-18.89"
       originy="-18.495819" />
    <inkscape:grid
       type="xygrid"
       id="grid359"
       dotted="true"
       spacingx="0.5"
       spacingy="0.5"
       empspacing="10"
       originx="-18.89"
       originy="-18.495819" />
  </sodipodi:namedview>
  <defs
     id="defs8">
    <filter
       style="color-interpolation-filters:sRGB"
       id="b"
       x="-0.059358314"
       y="-0.59821254"
       width="1.1187166"
       height="2.1964252">
      <feGaussianBlur
         stdDeviation="8.367"
         id="feGaussianBlur2" />
    </filter>
    <filter
       style="color-interpolation-filters:sRGB"
       id="a"
       x="-0.18022147"
       y="-0.20541099"
       width="1.3604429"
       height="1.410822">
      <feGaussianBlur
         stdDeviation="7.505"
         id="feGaussianBlur5" />
    </filter>
  </defs>
  <path
     d="m 0,44.004181 v -43.90899986 h 100 v 87.81299986 h -100 z"
     fill="none"
     style="stroke-width:28.4433"
     id="path14" />
  <path
     d="m 121.823,58.613181 q 0.312,-0.365 0.52,-0.625 0.209,-0.287 0.417,-0.521 0.235,-0.235 0.443,-0.469 0.208,-0.26 0.469,-0.52 0.469,0.051 0.885,0.051 h 0.834 q 1.223,0 2.135,-0.416 0.911,-0.443 1.615,-1.433 0.729,-0.99 1.276,-2.682 0.572,-1.719 1.093,-4.27 0.808,-3.777 1.407,-6.225 0.625,-2.474 1.25,-4.114 0.65,-1.667 1.38,-2.76 0.729,-1.094 1.797,-2.162 1.276,-1.276 2.343,-2.083 1.068,-0.834 2.084,-1.355 1.041,-0.547 2.057,-0.755 1.016,-0.234 2.24,-0.234 0.599,0 1.067,0.026 0.495,0.026 1.302,0.13 l -2.083,2.995 q -0.755,-0.052 -1.276,-0.078 -0.495,-0.026 -0.807,-0.026 h -1.12 q -3.255,0 -4.375,3.255 -0.26,0.807 -0.547,1.77 -0.26,0.938 -0.651,2.318 -0.365,1.355 -0.781,3.204 -0.417,1.822 -1.016,4.322 -0.469,2.084 -0.86,3.386 -0.364,1.276 -0.833,2.161 -0.442,0.86 -1.12,1.615 -0.65,0.755 -1.718,1.693 -0.417,0.312 -0.781,0.677 -0.339,0.338 -0.651,0.729 h 10.078 q 3.411,0 5.442,-0.13 2.032,-0.157 3.308,-0.886 1.276,-0.755 2.24,-2.291 0.963,-1.563 2.239,-4.271 l 0.573,1.015 q -0.313,0.808 -0.781,1.85 -0.443,1.015 -0.912,2.03 -0.443,1.016 -0.86,1.876 -0.416,0.859 -0.65,1.328 -0.651,1.328 -1.72,1.875 -1.04,0.52 -2.968,0.52 h -1.12 q -0.468,0 -1.484,-0.052 -1.016,-0.052 -2.865,-0.13 -1.822,-0.078 -5.13,-0.234 -2.89,-0.104 -4.974,-0.182 -2.083,-0.079 -3.099,-0.079 -1.224,0 -2.343,0.026 -1.12,0.026 -2.97,0.13 z m 39.276,-4.167 q 0,-1.64 0.312,-3.49 0.339,-1.849 0.834,-3.567 0.52,-1.745 1.198,-3.23 0.703,-1.51 1.51,-2.395 0.86,-1.016 2.266,-2.11 1.406,-1.093 2.89,-1.9 0.86,-0.47 1.51,-0.652 0.678,-0.208 1.537,-0.208 1.38,0 2.214,0.781 0.833,0.781 0.833,2.162 0,1.875 -0.911,3.307 -0.912,1.432 -3.1,3.099 -1.171,0.911 -2.109,1.588 -0.937,0.651 -1.745,1.224 -0.78,0.547 -1.588,1.068 -0.781,0.495 -1.693,1.068 0,1.172 0.052,1.77 0.052,0.574 0.209,1.225 0.26,1.067 1.041,1.692 0.782,0.6 1.797,0.6 1.537,0 3.542,-1.147 2.005,-1.145 5.026,-3.828 v 1.563 q -6.458,6.458 -11.25,6.458 -2.031,0 -3.203,-1.354 -1.172,-1.38 -1.172,-3.724 z m 4.114,-5.182 q 2.136,-1.328 3.516,-2.37 1.38,-1.042 2.188,-1.927 0.807,-0.912 1.12,-1.771 0.312,-0.86 0.312,-1.875 0,-1.016 -0.39,-1.589 -0.391,-0.598 -1.042,-0.598 -0.912,0 -1.771,0.78 -0.834,0.782 -1.615,2.136 -0.781,1.354 -1.406,3.23 -0.6,1.848 -0.912,3.984 z m 34.073,9.505 2.188,-2.188 h 7.63 q 0.703,-2.395 1.563,-5.729 0.885,-3.333 1.77,-6.979 0.912,-3.672 1.771,-7.266 0.86,-3.593 1.51,-6.484 -2.708,0.26 -4.348,0.86 -1.641,0.572 -3.021,1.692 -1.38,1.172 -2.188,3.047 -0.807,1.875 -0.807,3.906 0,0.964 0.156,1.797 0.183,0.807 0.651,2.188 l -4.01,2.396 q -0.52,-1.277 -0.703,-2.188 -0.182,-0.937 -0.182,-2.11 0,-3.255 1.718,-5.963 1.745,-2.734 5.104,-4.61 1.927,-1.12 3.88,-1.666 1.98,-0.573 5.027,-0.885 l 3.567,-1.823 -0.312,1.328 q 0.807,-0.052 1.302,-0.052 h 0.937 q 4.74,0 6.98,1.328 2.24,1.302 2.24,4.01 0,3.047 -1.694,5.677 -1.666,2.605 -4.557,4.141 -2.448,1.328 -4.74,2.005 -2.291,0.651 -4.947,0.808 -0.209,0.807 -0.365,1.38 l -0.26,1.093 q -0.13,0.521 -0.287,1.198 -0.156,0.651 -0.442,1.72 -0.157,0.754 -0.339,1.536 -0.182,0.755 -0.339,1.614 l -0.494,2.031 q 1.77,0 2.968,-0.026 1.198,-0.026 2.162,-0.078 0.963,-0.052 1.823,-0.13 0.885,-0.078 2.005,-0.182 l -0.104,0.469 q -1.12,0.52 -1.953,0.911 -0.808,0.365 -1.719,0.625 -0.911,0.234 -2.083,0.339 -1.172,0.104 -2.943,0.182 -1.745,0.078 -4.27,0.078 h -6.12 z m 17.006,-14.818 q 0.65,0.104 1.015,0.156 0.365,0.053 0.86,0.053 1.927,0 3.541,-0.756 1.615,-0.755 2.813,-2.057 1.224,-1.302 1.875,-3.073 0.677,-1.797 0.677,-3.932 0,-2.292 -1.328,-3.516 -1.302,-1.224 -3.75,-1.224 -0.417,0 -1.016,0.026 -0.573,0.026 -1.172,0.078 z m 18.208,10.495 q 0,-1.64 0.312,-3.49 0.339,-1.849 0.834,-3.567 0.52,-1.745 1.198,-3.23 0.703,-1.51 1.51,-2.395 0.86,-1.016 2.266,-2.11 1.406,-1.093 2.89,-1.9 0.86,-0.47 1.51,-0.652 0.678,-0.208 1.537,-0.208 1.38,0 2.214,0.781 0.833,0.781 0.833,2.162 0,1.875 -0.911,3.307 -0.912,1.432 -3.1,3.099 -1.171,0.911 -2.109,1.588 -0.937,0.651 -1.745,1.224 -0.78,0.547 -1.588,1.068 -0.781,0.495 -1.693,1.068 0,1.172 0.052,1.77 0.052,0.574 0.209,1.225 0.26,1.067 1.041,1.692 0.782,0.6 1.797,0.6 1.537,0 3.542,-1.147 2.005,-1.145 5.026,-3.828 v 1.563 q -6.458,6.458 -11.25,6.458 -2.031,0 -3.203,-1.354 -1.172,-1.38 -1.172,-3.724 z m 4.114,-5.182 q 2.136,-1.328 3.516,-2.37 1.38,-1.042 2.188,-1.927 0.807,-0.912 1.12,-1.771 0.312,-0.86 0.312,-1.875 0,-1.016 -0.39,-1.589 -0.391,-0.598 -1.042,-0.598 -0.912,0 -1.771,0.78 -0.834,0.782 -1.615,2.136 -0.781,1.354 -1.406,3.23 -0.6,1.848 -0.912,3.984 z m 19.198,-6.823 q 0.209,-0.156 0.391,-0.313 0.182,-0.156 0.39,-0.26 0.704,-0.52 0.912,-0.677 0.208,-0.182 0.651,-0.443 l 0.781,-0.052 h 1.302 l 0.938,-0.052 q 0.156,-0.86 0.312,-1.537 0.183,-0.703 0.365,-1.458 0.182,-0.755 0.365,-1.588 0.208,-0.86 0.468,-2.084 0.521,-0.208 0.73,-0.338 l 1.25,-0.573 q 0.598,-0.26 1.041,-0.443 0.443,-0.208 1.198,-0.625 -0.86,3.36 -1.38,5.495 -0.495,2.135 -0.755,3.15 h 6.823 l -2.032,1.537 -1.588,0.157 -2.136,0.052 -1.562,0.052 q -0.469,2.031 -0.912,3.828 -0.416,1.77 -0.755,3.177 -0.312,1.38 -0.469,2.292 -0.156,0.885 -0.156,1.172 0,0.911 0.495,1.718 0.52,0.782 1.12,0.782 0.52,0 1.979,-0.756 1.484,-0.78 4.453,-2.552 l -0.104,1.328 q -3.906,2.943 -6.458,4.532 -2.552,1.562 -3.464,1.562 -0.365,0 -0.755,-0.338 -0.365,-0.313 -0.677,-0.808 -0.313,-0.52 -0.521,-1.146 -0.182,-0.65 -0.182,-1.302 v -0.729 q 0,-0.338 0.078,-0.86 0.104,-0.546 0.286,-1.327 0.182,-0.808 0.495,-2.162 0.339,-1.354 0.807,-3.385 0.469,-2.031 1.172,-5.026 h -3.672 z m 21.75,0.651 0.105,-1.51 q 3.255,-2.24 5.494,-3.464 2.24,-1.224 2.943,-1.224 0.651,0 0.625,0.547 0,0.156 -0.104,0.729 -0.104,0.547 -0.469,2.031 -0.338,1.459 -0.99,4.063 -0.625,2.604 -1.692,6.927 -0.469,1.875 -0.469,2.734 0,1.485 0.964,1.485 0.208,0 0.494,-0.079 0.287,-0.078 0.808,-0.312 0.547,-0.26 1.406,-0.703 0.86,-0.443 2.24,-1.198 l 0.911,-0.495 -0.208,1.51 q -0.417,0.26 -0.782,0.47 -0.338,0.208 -0.729,0.442 l -3.02,1.953 q -2.188,1.38 -3.334,1.953 -1.146,0.573 -1.849,0.573 -0.599,0 -0.937,-0.599 -0.339,-0.573 -0.339,-1.536 0,-0.521 0.026,-0.964 0.026,-0.443 0.26,-1.406 0.235,-0.99 0.73,-2.917 0.52,-1.927 1.484,-5.39 0.313,-1.172 0.495,-1.901 0.208,-0.756 0.312,-1.224 0.104,-0.495 0.13,-0.808 0.026,-0.338 0.026,-0.599 0,-0.911 -0.65,-0.911 -0.157,0 -0.365,0.052 -0.208,0.052 -0.625,0.26 -0.39,0.183 -1.094,0.521 -0.677,0.339 -1.797,0.99 z m 6.563,-14.35 q 0.417,-0.26 0.755,-0.494 0.365,-0.26 0.625,-0.469 0.208,-0.104 0.443,-0.286 0.26,-0.182 1.093,-0.938 0.209,-0.156 0.365,-0.312 0.182,-0.156 0.39,-0.287 0.209,0.417 0.313,0.704 0.313,0.807 0.443,1.041 0.156,0.235 0.417,0.781 0.312,0.47 0.65,1.12 -0.703,0.521 -1.12,0.86 -0.39,0.312 -0.728,0.573 -0.339,0.26 -0.677,0.599 -0.339,0.312 -0.938,0.833 -0.911,-1.276 -1.354,-2.031 -0.417,-0.782 -0.677,-1.693 z m 12.531,13.699 q 0.208,-0.156 0.39,-0.313 0.183,-0.156 0.391,-0.26 0.703,-0.52 0.912,-0.677 0.208,-0.182 0.65,-0.443 l 0.782,-0.052 h 1.302 l 0.938,-0.052 q 0.156,-0.86 0.312,-1.537 0.182,-0.703 0.365,-1.458 0.182,-0.755 0.364,-1.588 0.209,-0.86 0.47,-2.084 0.52,-0.208 0.728,-0.338 l 1.25,-0.573 q 0.6,-0.26 1.042,-0.443 0.443,-0.208 1.198,-0.625 -0.86,3.36 -1.38,5.495 -0.495,2.135 -0.756,3.15 h 6.823 l -2.03,1.537 -1.59,0.157 -2.135,0.052 -1.562,0.052 q -0.47,2.031 -0.912,3.828 -0.416,1.77 -0.755,3.177 -0.313,1.38 -0.469,2.292 -0.156,0.885 -0.156,1.172 0,0.911 0.495,1.718 0.52,0.782 1.12,0.782 0.52,0 1.979,-0.756 1.484,-0.78 4.453,-2.552 l -0.104,1.328 q -3.907,2.943 -6.459,4.532 -2.552,1.562 -3.463,1.562 -0.365,0 -0.755,-0.338 -0.365,-0.313 -0.677,-0.808 -0.313,-0.52 -0.521,-1.146 -0.183,-0.65 -0.183,-1.302 v -0.729 q 0,-0.338 0.078,-0.86 0.105,-0.546 0.287,-1.327 0.182,-0.808 0.495,-2.162 0.338,-1.354 0.807,-3.385 0.469,-2.031 1.172,-5.026 h -3.672 z m 35.87,15.911 2.031,-3.75 q 0.755,0.26 1.198,0.339 0.443,0.052 1.146,0.052 1.875,0 3.281,-0.677 1.406,-0.677 3.125,-2.37 0.52,-0.469 1.38,-1.432 0.86,-0.964 1.823,-2.11 0.964,-1.145 1.927,-2.343 0.99,-1.224 1.797,-2.214 l 9.219,-11.953 q -1.12,-0.104 -1.667,-0.104 -0.52,0 -1.25,-0.104 l -2.786,-0.339 q -0.521,-0.052 -1.042,-0.078 -0.495,-0.026 -0.937,-0.026 -2.943,0 -4.558,1.276 -1.614,1.276 -1.614,3.594 0,0.911 0.234,1.953 0.235,1.015 0.886,2.995 l -3.959,2.135 q -0.416,-1.172 -0.573,-1.953 -0.156,-0.781 -0.156,-1.667 0,-2.187 0.938,-4.062 0.963,-1.875 3.099,-3.88 3.723,-3.672 7.473,-3.698 0.86,0 1.98,0.13 1.12,0.13 2.916,0.416 0.808,0.105 1.25,0.183 l 0.782,0.13 q 0.338,0.052 0.546,0.052 h 0.47 q 0.416,0 0.676,-0.052 0.287,-0.052 0.573,-0.208 0.313,-0.157 0.651,-0.495 0.339,-0.365 0.938,-0.964 l 0.729,0.547 q -0.417,2.136 -0.86,4.688 l -0.859,5.26 q -0.417,2.682 -0.781,5.365 l -0.677,4.922 q -0.287,2.265 -0.443,4.01 -0.156,1.719 -0.156,2.578 0,1.38 0.547,1.901 0.573,0.495 2.057,0.495 0.703,0 1.172,-0.026 0.495,-0.026 1.667,-0.13 l 1.224,-0.105 -0.86,1.277 -1.042,0.182 q -0.442,0.078 -1.197,0.234 -0.73,0.13 -2.006,0.365 -1.25,0.234 -3.437,0.599 -0.86,0.208 -1.537,0.234 -0.52,0 -0.885,-0.338 -0.339,-0.313 -0.339,-0.834 0,-0.416 0.079,-0.99 0.078,-0.572 0.182,-1.301 0.156,-1.224 0.312,-2.188 0.105,-0.755 0.209,-1.432 0.13,-0.703 0.234,-1.406 l 0.26,-1.928 q -1.536,-0.104 -3.906,-0.156 -2.344,-0.052 -5.547,-0.052 -2.656,3.047 -4.53,4.974 -1.85,1.901 -3.308,2.995 -1.432,1.094 -2.682,1.536 -1.25,0.417 -2.579,0.417 -0.755,0 -1.354,-0.104 -0.573,-0.104 -1.484,-0.365 z m 17.604,-11.64 h 8.099 l 2.187,-13.49 z m 21.906,8.906 q 0,-0.26 0.026,-0.547 0.026,-0.312 0.078,-0.677 l 0.964,-0.651 q 0.364,-0.26 0.703,-0.443 0.365,-0.182 0.677,-0.39 l 0.625,-0.417 q 0.339,-0.234 0.6,-0.443 0.051,1.38 0.155,2.136 0.13,0.729 0.39,1.38 0.912,1.719 2.605,1.719 0.807,0 1.589,-0.365 0.807,-0.39 1.432,-0.99 0.651,-0.625 1.068,-1.328 0.442,-0.729 0.442,-1.484 0,-0.469 -0.104,-0.833 -0.104,-0.391 -0.443,-0.782 -0.312,-0.416 -0.911,-0.885 -0.573,-0.495 -1.589,-1.172 -1.536,-1.068 -2.213,-2.11 -0.651,-1.041 -0.651,-2.265 0,-1.328 0.833,-2.76 0.86,-1.459 2.162,-2.657 1.328,-1.198 2.89,-1.979 1.589,-0.781 3.021,-0.781 1.12,0 1.927,0.443 0.834,0.416 1.64,1.38 -0.26,0.364 -0.416,0.625 -0.156,0.234 -0.416,0.495 -0.235,0.26 -0.625,0.65 -0.365,0.365 -1.042,0.99 -0.912,-1.12 -1.64,-1.588 -0.704,-0.469 -1.667,-0.469 -1.38,0 -2.37,1.016 -0.99,0.99 -0.99,2.395 0,1.068 0.573,1.875 0.599,0.782 1.98,1.693 1.119,0.703 1.77,1.172 0.677,0.469 1.016,0.938 0.364,0.442 0.468,0.937 0.105,0.469 0.105,1.224 0,2.083 -1.407,4.036 -1.406,1.928 -3.88,3.308 -1.224,0.703 -2.708,1.093 -1.485,0.417 -2.708,0.417 -1.771,0 -2.865,-1.068 -1.094,-1.067 -1.094,-2.838 z m 24.328,-13.177 q 0.209,-0.156 0.391,-0.313 0.182,-0.156 0.39,-0.26 0.704,-0.52 0.912,-0.677 0.208,-0.182 0.651,-0.443 l 0.781,-0.052 h 1.302 l 0.938,-0.052 q 0.156,-0.86 0.312,-1.537 0.183,-0.703 0.365,-1.458 0.182,-0.755 0.365,-1.588 0.208,-0.86 0.468,-2.084 0.521,-0.208 0.73,-0.338 l 1.25,-0.573 q 0.598,-0.26 1.041,-0.443 0.443,-0.208 1.198,-0.625 -0.86,3.36 -1.38,5.495 -0.495,2.135 -0.755,3.15 h 6.823 l -2.032,1.537 -1.588,0.157 -2.136,0.052 -1.562,0.052 q -0.469,2.031 -0.912,3.828 -0.416,1.77 -0.755,3.177 -0.312,1.38 -0.469,2.292 -0.156,0.885 -0.156,1.172 0,0.911 0.495,1.718 0.52,0.782 1.12,0.782 0.52,0 1.979,-0.756 1.484,-0.78 4.453,-2.552 l -0.104,1.328 q -3.906,2.943 -6.458,4.532 -2.552,1.562 -3.464,1.562 -0.365,0 -0.755,-0.338 -0.365,-0.313 -0.677,-0.808 -0.313,-0.52 -0.521,-1.146 -0.182,-0.65 -0.182,-1.302 v -0.729 q 0,-0.338 0.078,-0.86 0.104,-0.546 0.286,-1.327 0.183,-0.808 0.495,-2.162 0.339,-1.354 0.807,-3.385 0.47,-2.031 1.172,-5.026 h -3.672 z m 21.75,0.156 0.157,-1.432 q 1.224,-0.755 2.63,-1.485 1.432,-0.755 2.682,-1.354 1.25,-0.625 2.188,-1.015 0.937,-0.417 1.198,-0.417 0.26,0 0.442,0.182 0.183,0.156 0.183,0.417 0,0.208 -0.079,0.625 -0.078,0.39 -0.39,1.719 l -0.156,0.859 q 0.312,-0.208 0.52,-0.365 0.235,-0.182 0.547,-0.416 0.313,-0.235 0.782,-0.573 0.494,-0.365 1.302,-0.938 2.135,-1.484 3.515,-1.51 0.417,0 0.808,0.078 0.416,0.078 1.171,0.365 l -1.614,5.052 q -0.703,-0.912 -1.328,-1.276 -0.6,-0.365 -1.485,-0.365 -1.067,0 -2.083,0.39 -1.016,0.391 -2.396,1.46 l -4.01,15.207 -4.115,1.537 3.203,-11.667 q 0.469,-1.77 0.808,-3.385 0.364,-1.64 0.364,-2.214 0,-1.067 -1.015,-1.067 -0.26,0 -0.47,0.052 -0.208,0.052 -0.624,0.208 -0.39,0.156 -1.042,0.495 -0.625,0.312 -1.693,0.833 z m 20.683,11.641 q 0,-1.98 0.416,-3.985 0.443,-2.005 1.198,-3.776 0.781,-1.797 1.85,-3.255 1.067,-1.458 2.343,-2.422 2.396,-1.77 4.74,-2.838 2.37,-1.068 3.958,-1.068 2.135,0 3.463,1.38 1.355,1.354 1.355,3.49 0,1.38 -0.313,3.02 -0.286,1.615 -0.833,3.23 -0.521,1.588 -1.224,3.047 -0.677,1.458 -1.485,2.578 -1.432,1.875 -5.39,4.062 -1.875,1.016 -3.1,1.406 -1.223,0.417 -2.395,0.417 -2.083,0 -3.333,-1.432 -1.25,-1.458 -1.25,-3.854 z m 4.114,-2.24 q 0,2.292 0.964,3.646 0.963,1.354 2.604,1.354 1.536,0 2.917,-1.198 1.406,-1.198 2.578,-3.49 0.963,-1.979 1.484,-3.932 0.547,-1.979 0.547,-3.698 0,-2.5 -0.938,-3.88 -0.911,-1.38 -2.63,-1.38 -1.38,0 -2.734,1.12 -1.328,1.12 -2.396,2.916 -1.068,1.771 -1.745,4.01 -0.65,2.24 -0.65,4.532 z"
     aria-label="Le Petit Astro"
     style="fill:#ffffff"
     id="path18" />
  <path
     id="path361"
     style="color:#000000;opacity:1;fill:#ffffff;fill-rule:evenodd;stroke-width:1;stroke-linecap:round;stroke-linejoin:round"
     d="m 50.11,29.008087 c -11.793269,0 -22.594334,1.186127 -31.126953,3.173828 0.29538,0.589064 0.477167,1.242755 0.517578,1.933594 8.325226,-1.929192 18.982388,-3.107422 30.609375,-3.107422 13.453732,0 25.636962,1.565918 34.375,4.0625 4.36903,1.248292 7.87536,2.736066 10.21484,4.316406 2.33951,1.580342 3.41016,3.160988 3.41016,4.621094 0,1.460108 -1.07065,3.040754 -3.41016,4.621094 -2.33948,1.58034 -5.84581,3.068114 -10.21484,4.316406 -8.738038,2.496584 -20.921268,4.0625 -34.375,4.0625 -13.453732,0 -25.636962,-1.565916 -34.375,-4.0625 -4.36902,-1.248292 -7.875346,-2.736066 -10.214844,-4.316406 -2.339496,-1.58034 -3.410156,-3.160986 -3.410156,-4.621094 0,-1.460106 1.07066,-3.040752 3.410156,-4.621094 2.021734,-1.365689 4.95717,-2.652539 8.525391,-3.785156 v -2.09375 c -3.962961,1.210201 -7.259709,2.610379 -9.646485,4.222656 -2.619556,1.769524 -4.289062,3.87147 -4.289062,6.277344 0,2.405876 1.669506,4.507822 4.289062,6.277344 2.619558,1.769522 6.290853,3.296831 10.789063,4.582031 8.99642,2.570408 21.313735,4.140625 34.921875,4.140625 13.60814,0 25.925456,-1.570217 34.92188,-4.140625 4.4982,-1.2852 8.1695,-2.812509 10.78906,-4.582031 2.61954,-1.769522 4.28906,-3.871468 4.28906,-6.277344 0,-2.405874 -1.66952,-4.50782 -4.28906,-6.277344 -2.61956,-1.769522 -6.29086,-3.296827 -10.78906,-4.582031 -8.996424,-2.570404 -21.31374,-4.140625 -34.92188,-4.140625 z" />
  <path
     id="ellipse363"
     style="color:#000000;opacity:1;fill:#ffffff;fill-rule:evenodd;stroke-width:1;stroke-linecap:round;stroke-linejoin:round"
     d="m 27.89125,2.7514322e-4 c -0.25599,0.002199997 -0.508648,0.0176399968 -0.757812,0.0468699968 a 1.0001,1.0001 0 0 0 -0.0039,0 c -0.724524,0.0888 -1.412684,0.307158 -2.023437,0.660156 a 1.0001,1.0001 0 0 0 -0.0039,0.0039 c -1.43415,0.83701296 -2.361727,2.34378896 -2.851563,4.21874996 -0.489838,1.874961 -0.577502,4.162145 -0.328125,6.8320309 0.452579,4.845462 2.050819,10.958378 4.714844,17.933594 0.675146,-0.103915 1.381599,-0.190168 2.074218,-0.285156 -2.710297,-7.023117 -4.358705,-13.18655 -4.792968,-17.835938 -0.235023,-2.5162009 -0.12896,-4.6003609 0.273437,-6.1406239 0.402004,-1.53876 1.056121,-2.491968 1.917969,-2.996094 h 0.0039 c 0.364598,-0.21015 0.773337,-0.346858 1.253906,-0.40625 2.679369,-0.31447 7.410702,2.192944 12.746094,7.242187 4.770326,4.5144799 10.06465,11.0771959 15.253906,18.8164069 0.870445,0.02611 1.717611,0.07057 2.574219,0.109374 -5.538352,-8.430157 -11.246946,-15.455645 -16.449219,-20.3789059 -5.158608,-4.881941 -9.761735,-7.85350196 -13.601562,-7.82031195678 z m 45.707031,58.32031185678 c -0.675013,0.103981 -1.381728,0.190103 -2.074219,0.285156 2.712499,7.029503 4.364973,13.193674 4.796876,17.84375 0.233707,2.516192 0.123126,4.602499 -0.28125,6.140628 -0.403981,1.53663 -1.061405,2.483 -1.925782,2.98437 l -0.0039,0.004 c -1.120394,0.63439 -2.73714,0.59446 -4.898438,-0.3086 -2.165108,-0.90464 -4.774986,-2.659 -7.609374,-5.160151 -0.670832,-0.591962 -1.356239,-1.233943 -2.050782,-1.91211 v 2.736329 c 0.242251,0.22111 0.490769,0.464262 0.730469,0.675782 2.939471,2.59388 5.678442,4.47087 8.160156,5.50781 2.481717,1.03694 4.806516,1.25062 6.660157,0.19531 a 1.0001,1.0001 0 0 0 0.0039,0 1.0001,1.0001 0 0 0 0.0039,-0.004 c 1.438366,-0.83246 2.370644,-2.3371 2.863281,-4.21094 0.492638,-1.873845 0.583951,-4.161799 0.335938,-6.832031 -0.450084,-4.845807 -2.04582,-10.964953 -4.710938,-17.945313 z m -31.316406,1.496094 c 4.563585,6.945672 9.218933,12.901095 13.605469,17.525391 0.366319,-0.576159 0.847439,-1.073623 1.410156,-1.458985 -3.976643,-4.248801 -8.224851,-9.696331 -12.425781,-15.957031 -0.875817,-0.02617 -1.728022,-0.07036 -2.589844,-0.109375 z" />
  <path
     id="ellipse365"
     style="color:#000000;opacity:1;fill:#ffffff;fill-rule:evenodd;stroke-width:1;stroke-linecap:round;stroke-linejoin:round"
     d="m 71.918594,0.01590014 c -2.765633,0.15009 -5.925344,1.82244096 -9.445313,4.58593696 -3.606212,2.831206 -7.584678,6.8876569 -11.707031,11.9648439 0.429964,0.537519 0.85785,1.086922 1.289062,1.644531 4.147027,-5.146488 8.146925,-9.2839209 11.65625,-12.0390619 3.8339,-3.009962 7.106107,-4.36553 9.144532,-4.140625 l 0.0039,0.0039 c 0.477958,0.06018 0.886943,0.192509 1.25,0.402344 0.865556,0.500542 1.52506,1.451275 1.929688,2.988281 0.404626,1.537008 0.514283,3.618064 0.28125,6.1328129 -0.139702,1.507554 -0.421432,3.189499 -0.8125,4.99414 h 2.060546 c 0.349774,-1.708967 0.60678,-3.324342 0.744141,-4.80664 0.247318,-2.6688439 0.153179,-4.9592399 -0.339844,-6.8320319 -0.493024,-1.872787 -1.425031,-3.375309 -2.863281,-4.20703096 -0.610752,-0.352997 -1.295005,-0.571346 -2.019531,-0.660156 a 1.0001,1.0001 0 0 0 -0.01172,-0.0039 c -0.378927,-0.04203 -0.765067,-0.04877 -1.160156,-0.02734 z m 2.326172,21.44531186 c -0.734399,2.487895 -1.63895,5.145613 -2.720704,7.949219 0.69377,0.09523 1.401901,0.180967 2.078126,0.285156 1.032379,-2.704139 1.898438,-5.275618 2.605468,-7.697265 -0.702282,-0.04256 -1.366817,-0.23152 -1.96289,-0.53711 z m -47.607422,36.859375 c -2.663468,6.974187 -4.262344,13.088997 -4.714844,17.933594 -0.249376,2.669886 -0.161711,4.960983 0.328125,6.83594 0.489839,1.87497 1.417433,3.37779 2.851563,4.21484 a 1.0001,1.0001 0 0 0 0.01172,0.008 1.0001,1.0001 0 0 0 0.0039,0 1.0001,1.0001 0 0 0 0.0039,0.004 c 1.446566,0.80979 3.209952,0.8448 5.078125,0.32422 1.868178,-0.52058 3.900098,-1.59049 6.085937,-3.14453 3.970984,-2.82321 8.465433,-7.269489 13.171875,-13.066409 -0.43233,-0.540483 -0.863002,-1.075527 -1.296875,-1.636719 -4.720485,5.853877 -9.230812,10.366714 -13.039062,13.074218 -2.060704,1.46508 -3.919441,2.4231 -5.457031,2.85156 -1.533823,0.42741 -2.68867,0.33583 -3.558594,-0.14843 -0.858751,-0.50504 -1.516953,-1.4533 -1.917969,-2.98829 -0.402397,-1.54025 -0.508456,-3.624421 -0.273437,-6.14062 0.434266,-4.649383 2.08658,-10.812829 4.796874,-17.835938 -0.692617,-0.09499 -1.399073,-0.181239 -2.074218,-0.285156 z" />
  <g
     id="path524"
     style="opacity:1;fill:#ffffff;stroke-width:0.5"
     transform="matrix(2,0,0,2,-37.89,-36.991776)">
    <path
       id="path677"
       style="color:#000000;fill:#ffffff;fill-rule:evenodd;stroke-width:0.5;stroke-linecap:round;stroke-linejoin:round;-inkscape-stroke:none"
       d="m 44,37 c -1.927068,0 -3.5,1.572932 -3.5,3.5 0,1.927068 1.572932,3.5 3.5,3.5 1.927068,0 3.5,-1.572932 3.5,-3.5 0,-1.927068 -1.572932,-3.5 -3.5,-3.5 z" />
  </g>
  <circle
     style="opacity:1;fill:#ffffff;fill-rule:evenodd;stroke:none;stroke-width:1;stroke-linecap:round;stroke-linejoin:round"
     id="path669"
     cx="14.510001"
     cy="34.408226"
     r="4" />
  <circle
     style="opacity:1;fill:#ffffff;fill-rule:evenodd;stroke:none;stroke-width:1;stroke-linecap:round;stroke-linejoin:round"
     id="circle671"
     cx="76.510002"
     cy="17.008224"
     r="4" />
  <circle
     style="opacity:1;fill:#ffffff;fill-rule:evenodd;stroke:none;stroke-width:1;stroke-linecap:round;stroke-linejoin:round"
     id="circle673"
     cx="60.110001"
     cy="80.008224"
     r="4" />
</svg>
