<svg width="63.199" height="63.905"
  xmlns="http://www.w3.org/2000/svg">
  <path d="M22.677.015A22 23 45 0 0 6.948 6.951a22 23 45 0 0-.707 31.818 22 23 45 0 0 27.217 2.873l20.477 20.477c.534.534 3.74 3.737 7.477 0 3.737-3.738.534-6.94.033-7.442L41.097 34.33a22 23 45 0 0-2.328-28.088A22 23 45 0 0 22.677.015zm.403 6.91a15.231 15.923 45 0 1 10.686 4.32 15.231 15.923 45 0 1-.49 22.03 15.231 15.923 45 0 1-22.03.49 15.231 15.923 45 0 1 .49-22.029 15.231 15.923 45 0 1 11.345-4.81z" fill="#fff"/>
</svg>
