<?xml version="1.0" encoding="UTF-8" standalone="no"?>
<svg
   width="40"
   height="40"
   version="1.1"
   id="svg4"
   sodipodi:docname="publication.svg"
   inkscape:version="1.2 (1:1.2.1+202207142221+cd75a1ee6d)"
   xmlns:inkscape="http://www.inkscape.org/namespaces/inkscape"
   xmlns:sodipodi="http://sodipodi.sourceforge.net/DTD/sodipodi-0.dtd"
   xmlns="http://www.w3.org/2000/svg"
   xmlns:svg="http://www.w3.org/2000/svg">
  <defs
     id="defs8" />
  <sodipodi:namedview
     id="namedview6"
     pagecolor="#333333"
     bordercolor="#666666"
     borderopacity="1.0"
     inkscape:showpageshadow="2"
     inkscape:pageopacity="0"
     inkscape:pagecheckerboard="0"
     inkscape:deskcolor="#d1d1d1"
     showgrid="true"
     inkscape:zoom="8.34386"
     inkscape:cx="3.5355339"
     inkscape:cy="8.2695539"
     inkscape:window-width="1920"
     inkscape:window-height="1043"
     inkscape:window-x="0"
     inkscape:window-y="0"
     inkscape:window-maximized="1"
     inkscape:current-layer="svg4">
    <inkscape:grid
       type="xygrid"
       id="grid133"
       color="#9999ff"
       opacity="0.1254902"
       empcolor="#9999ff"
       empopacity="0.25098039" />
    <inkscape:grid
       type="xygrid"
       id="grid1604"
       dotted="true"
       spacingx="0.5"
       spacingy="0.5"
       empspacing="10" />
  </sodipodi:namedview>
  <path
     style="color:#000000;opacity:1;fill:#ffffff;fill-rule:evenodd;stroke-linecap:round;stroke-linejoin:round"
     d="m 7,33 c -2.198701,0 -4,-1.801299 -4,-4 v -24 c 0,-2.198701 1.801299,-4 4,-4 h 20 c 2.198701,0 4,1.801299 4,4 v 24 c 0,2.198701 -1.801299,4 -4,4 z m 0,-2 h 20 c 1.125296,0 2,-0.874704 2,-2 v -24 c 0,-1.125296 -0.874704,-2 -2,-2 h -20 c -1.125296,0 -2,0.874704 -2,2 v 24 c 0,1.125296 0.874704,2 2,2 z"
     id="rect465"
     sodipodi:nodetypes="ssssssssssssssssss" />
  <path
     style="opacity:1;fill:none;stroke:#ffffff;stroke-width:1px;stroke-linecap:round;stroke-linejoin:miter"
     d="m 9.5,20.5 h 15"
     id="path1617"
     sodipodi:nodetypes="cc" />
  <path
     style="opacity:1;fill:none;stroke:#ffffff;stroke-width:1px;stroke-linecap:round;stroke-linejoin:miter"
     d="m 9.5,22.5 h 15"
     id="path1619"
     sodipodi:nodetypes="cc" />
  <path
     style="opacity:1;fill:none;stroke:#ffffff;stroke-width:1px;stroke-linecap:round;stroke-linejoin:miter"
     d="m 9.5,26.5 h 9"
     id="path1621"
     sodipodi:nodetypes="cc" />
  <path
     sodipodi:type="star"
     style="opacity:1;fill:#ffffff;fill-rule:evenodd;stroke:none;stroke-width:0.889141;stroke-linecap:round;stroke-linejoin:round"
     id="path4795"
     inkscape:flatsided="false"
     sodipodi:sides="5"
     sodipodi:cx="17"
     sodipodi:cy="13.5"
     sodipodi:r1="4.2720017"
     sodipodi:r2="1.9104973"
     sodipodi:arg1="1.3089969"
     sodipodi:arg2="1.9373155"
     inkscape:rounded="0"
     inkscape:randomized="0"
     d="m 18.105676,17.626437 -1.790337,-2.342834 -2.898141,0.543096 1.674923,-2.426687 -1.41209,-2.58847 2.825496,0.843059 2.025421,-2.1428583 0.07133,2.9477263 2.663869,1.26411 -2.781412,0.978736 z"
     inkscape:transform-center-x="-0.38427165"
     inkscape:transform-center-y="0.077703341"
     transform="matrix(1.1246803,0,0,1.1246803,-7.1728608,-5.6976701)" />
  <path
     sodipodi:type="star"
     style="opacity:1;fill:#ffffff;fill-rule:evenodd;stroke:none;stroke-width:1.46013;stroke-linecap:round;stroke-linejoin:round"
     id="path4797"
     inkscape:flatsided="false"
     sodipodi:sides="5"
     sodipodi:cx="17"
     sodipodi:cy="13.5"
     sodipodi:r1="4.2720017"
     sodipodi:r2="1.9104973"
     sodipodi:arg1="1.3089969"
     sodipodi:arg2="1.9373155"
     inkscape:rounded="0"
     inkscape:randomized="0"
     d="m 18.105676,17.626437 -1.790337,-2.342834 -2.898141,0.543096 1.674923,-2.426687 -1.41209,-2.58847 2.825496,0.843059 2.025421,-2.1428583 0.07133,2.9477263 2.663869,1.26411 -2.781412,0.978736 z"
     inkscape:transform-center-x="-0.23400284"
     inkscape:transform-center-y="0.047317749"
     transform="matrix(0.68487435,0,0,0.68487435,12.446346,-1.3393002)" />
  <path
     sodipodi:type="star"
     style="opacity:1;fill:#ffffff;fill-rule:evenodd;stroke:none;stroke-width:2.17491;stroke-linecap:round;stroke-linejoin:round"
     id="path4835"
     inkscape:flatsided="false"
     sodipodi:sides="5"
     sodipodi:cx="17"
     sodipodi:cy="13.5"
     sodipodi:r1="4.2720017"
     sodipodi:r2="1.9104973"
     sodipodi:arg1="1.3089969"
     sodipodi:arg2="1.9373155"
     inkscape:rounded="0"
     inkscape:randomized="0"
     d="m 18.105676,17.626437 -1.790337,-2.342834 -2.898141,0.543096 1.674923,-2.426687 -1.41209,-2.58847 2.825496,0.843059 2.025421,-2.1428583 0.07133,2.9477263 2.663869,1.26411 -2.781412,0.978736 z"
     inkscape:transform-center-x="-0.063446834"
     inkscape:transform-center-y="-0.12619949"
     transform="matrix(0.44412497,-0.11900293,0.11900293,0.44412497,10.040849,8.170072)" />
  <path
     style="fill:none;stroke:#ffffff;stroke-width:1px;stroke-linecap:round;stroke-linejoin:miter;opacity:0.75"
     d="m 7.5,16.5 h 19"
     id="path4889"
     sodipodi:nodetypes="cc" />
  <path
     id="rect4969"
     style="opacity:0.75;fill:none;fill-rule:evenodd;stroke:#ffffff;stroke-width:1;stroke-linecap:round;stroke-linejoin:round"
     d="m 8.2714844,34.5 c 0.5475834,0.611855 1.3388499,1 2.2285156,1 h 18.5 c 2.499997,0 4.5,-1.975314 4.5,-4.5 v -22.5 c 0,-0.8896657 -0.388145,-1.6809322 -1,-2.2285156"
     sodipodi:nodetypes="cssssc" />
  <path
     id="path6620"
     style="opacity:0.75;fill:none;fill-rule:evenodd;stroke:#ffffff;stroke-width:1;stroke-linecap:round;stroke-linejoin:round"
     d="m 11.271484,37.5 c 0.547584,0.611855 1.33885,1 2.228516,1 h 17 c 2.838021,0 6,-3.000003 6,-6 v -21 c 0,-0.889666 -0.388145,-1.6809323 -1,-2.2285156"
     sodipodi:nodetypes="cssssc" />
  <path
     style="opacity:1;fill:none;stroke:#ffffff;stroke-width:1px;stroke-linecap:round;stroke-linejoin:miter"
     d="m 9.5,24.5 h 15"
     id="path7363"
     sodipodi:nodetypes="cc" />
</svg>
