<svg width="40" height="40" xmlns="http://www.w3.org/2000/svg"><path style="fill:none;stroke:#fff;stroke-width:2;stroke-linecap:round;stroke-linejoin:round;stroke-miterlimit:4;stroke-dasharray:none" d="m7 35 3-5"/><path style="opacity:.6;fill:#fff;fill-opacity:1;fill-rule:evenodd;stroke-width:1.8;stroke-linecap:round;stroke-linejoin:round;stroke-miterlimit:4;stroke-dasharray:none" d="m30.5 13.674-.502.866a3.999 3.999 0 0 1 2.003 3.462 3.999 3.999 0 0 1-2.003 3.466l.503.865a5 5 0 0 0 2.498-4.331 5 5 0 0 0-2.498-4.328z"/><path style="opacity:.6;fill:#fff;fill-opacity:1;fill-rule:evenodd;stroke-width:1.8;stroke-linecap:round;stroke-linejoin:round;stroke-miterlimit:4;stroke-dasharray:none" d="m31.997 11.074-.498.87a7 7 0 0 1 3.5 6.058 7 7 0 0 1-3.5 6.059l.498.87A8.002 8.002 0 0 0 36 18.001a8.002 8.002 0 0 0-4.003-6.928z"/><path style="opacity:.6;fill:#fff;fill-opacity:1;fill-rule:evenodd;stroke-width:1.8;stroke-linecap:round;stroke-linejoin:round;stroke-miterlimit:4;stroke-dasharray:none" d="m33.498 8.477-.499.866a10 10 0 0 1-.004 17.322l.5.87a10.999 10.999 0 0 0 0-19.054z"/><path style="fill:none;stroke:#fff;stroke-width:2;stroke-linecap:round;stroke-linejoin:round;stroke-miterlimit:4;stroke-dasharray:none" d="M13 10H9c-3.001 0-7 1.497-7 7.999s3.999 7.999 7 7.999h4z"/><path style="fill:none;stroke:#fff;stroke-width:1.5;stroke-linecap:round;stroke-linejoin:round;stroke-miterlimit:4;stroke-dasharray:none" d="M15.75 24.652c2.496.251 4.925.82 6.254 1.62 1.111.672 2.956 2.699 5.496 3.228v-23c-2.54.53-4.385 2.556-5.496 3.229-1.329.8-3.758 1.37-6.254 1.62"/><path style="color:#000;opacity:.75;fill:#fff;stroke-width:.999997;stroke-linecap:round;stroke-linejoin:round" d="M8.324 12.512c-.557.174-1.099.4-1.603.691C5.107 14.133 4 15.696 4 18s1.107 3.868 2.72 4.797c.505.29 1.047.517 1.604.691a5.503 5.503 0 0 1-1.23-.691C5.852 21.867 5 20.304 5 18s.852-3.868 2.094-4.797c.387-.29.802-.517 1.23-.691z"/></svg>