<svg viewBox="0 0 32 32" xmlns="http://www.w3.org/2000/svg"><circle style="fill:#000;fill-rule:evenodd;stroke:none;stroke-width:1;stroke-linecap:round;stroke-linejoin:round;opacity:.1" cx="16" cy="16" r="16"/><path style="fill:#000;fill-rule:evenodd;stroke:none;stroke-width:1;stroke-linecap:round;stroke-linejoin:round;opacity:.1" d="M16 6.152a6.193 6.193 0 0 0-6.188 6.188A6.193 6.193 0 0 0 16 18.527a6.193 6.193 0 0 0 6.188-6.187A6.193 6.193 0 0 0 16 6.152zm0 .75a5.432 5.432 0 0 1 5.438 5.438A5.432 5.432 0 0 1 16 17.777a5.432 5.432 0 0 1-5.438-5.437A5.432 5.432 0 0 1 16 6.902zm-4.36 11.602c-1.484 0-3.331.18-4.855.752-.762.286-1.446.668-1.955 1.203A2.93 2.93 0 0 0 4 22.512v4.058a16 16 0 0 0 .75.75v-4.808c0-.633.224-1.116.623-1.535.4-.42.986-.763 1.678-1.022a8.48 8.48 0 0 1 .799-.254c1.21-.321 2.589-.442 3.74-.445 2.92 1.422 5.9 1.422 8.82 0 1.414.004 3.172.186 4.54.7.69.258 1.278.601 1.677 1.02.4.42.623.903.623 1.536v4.808a16 16 0 0 0 .75-.75v-4.058a2.93 2.93 0 0 0-.83-2.053c-.51-.535-1.193-.917-1.955-1.203-1.524-.572-3.371-.752-4.856-.752h-.088l-.08.04c-2.816 1.41-5.566 1.41-8.382 0l-.08-.04h-.088z"/><path style="opacity:1;fill:#4d4d4d;fill-rule:evenodd;stroke:none;stroke-width:1;stroke-linecap:round;stroke-linejoin:round" d="M16 5.453a6.193 6.193 0 0 0-6.188 6.188A6.193 6.193 0 0 0 16 17.828a6.193 6.193 0 0 0 6.188-6.187A6.193 6.193 0 0 0 16 5.453zm0 .75a5.432 5.432 0 0 1 5.438 5.438A5.432 5.432 0 0 1 16 17.078a5.432 5.432 0 0 1-5.438-5.437A5.432 5.432 0 0 1 16 6.203zm-4.36 11.602c-1.484 0-3.331.18-4.855.752-.762.285-1.446.668-1.955 1.203A2.93 2.93 0 0 0 4 21.812v4.758a16 16 0 0 0 .75.75v-5.507c0-.633.224-1.117.623-1.536.4-.419.986-.762 1.678-1.021.254-.096.522-.18.799-.253 1.21-.322 2.589-.443 3.74-.446 2.92 1.421 5.9 1.421 8.82 0 1.414.004 3.172.186 4.54.699.69.26 1.278.602 1.677 1.021.4.42.623.903.623 1.535v5.508a16 16 0 0 0 .75-.75v-4.757a2.93 2.93 0 0 0-.83-2.053c-.51-.535-1.193-.918-1.955-1.203-1.524-.572-3.371-.752-4.856-.752h-.088l-.08.04c-2.816 1.41-5.566 1.41-8.382 0l-.08-.04z"/></svg>